<?xml version="1.0" encoding="UTF-8"?><svg xmlns="http://www.w3.org/2000/svg" viewBox="0 0 645.76 800"><g id="Background_-_2"><rect x="67.49" y="100" width="500" height="600" rx="45" ry="45" fill="#fff" stroke="#0b3954" stroke-miterlimit="10"/></g><g id="Zeichenfläche_-_2"><g id="Lifting_Puppet"><rect x="282.05" y="483.28" width="143.17" height="143.17" fill="#ead9bb" stroke="#0b3954" stroke-miterlimit="10"/><path id="neck" d="M359.1,227.53c-9.17-9.11-20.09-5.58-24.77-2.66-6.28,3.92-13.65,14.3-16.69,20.24-2.74,5.36-4.08,14.96,5.81,23.02,9.89,8.07,21.72,3.54,26.05-.93,13.66-14.12,24.02-25.34,9.6-39.68ZM333.19,263.16c-1.35-.94-1.69-2.8-.75-4.15s2.8-1.69,4.15-.75,1.69,2.8.75,4.15c-.94,1.35-2.8,1.69-4.15.75ZM350.98,237.51c-1.35-.94-1.69-2.8-.75-4.15.94-1.35,2.8-1.69,4.15-.75s1.69,2.8.75,4.15-2.8,1.69-4.15.75Z" fill="#bfd7ea" stroke="#0b3954" stroke-miterlimit="10"/><path id="upper_body" d="M337.81,245.68c-29.48-21.26-65.59,35.43-77.19,62.06-13.32,30.57-14.72,39.63-40.41,72.7-21.46,27.63-22.07,22.26-26.51,33.84-3.05,7.96,5.21,19.96,20.57,29.65,15.36,9.69,38.67,17.56,69.26-24.65,43.39-59.87,93.16-145.55,54.28-173.59ZM332.27,259.19c.86-1.41,2.69-1.85,4.1-.99s1.85,2.69.99,4.1-2.69,1.85-4.1.99-1.85-2.69-.99-4.1ZM234,428.91c-1.41-.86-1.85-2.69-.99-4.1s2.69-1.85,4.1-.99,1.85,2.69.99,4.1-2.69,1.85-4.1.99Z" fill="#bfd7ea" stroke="#0b3954" stroke-miterlimit="10"/><path id="upper_arm" d="M317.06,265.49c-11.34.07-20.39,10.07-20.34,17.53.06,8.88,4.44,98.15,5.62,102.43,1.18,4.28,3.67,11.01,15.07,11.19,11.13.17,14.34-5.62,14.75-11.09.42-5.47,1.54-21.38,2.5-34.09,2.61-34.59,13.02-86.14-17.61-85.96ZM316.66,385.49c-1.65,0-2.98-1.35-2.97-2.99,0-1.65,1.35-2.98,2.99-2.97s2.98,1.35,2.97,2.99-1.35,2.98-2.99,2.97ZM316.98,289.05c-1.65,0-2.98-1.35-2.97-2.99s1.35-2.98,2.99-2.97c1.65,0,2.98,1.35,2.97,2.99s-1.35,2.98-2.99,2.97Z" fill="#bfd7ea" stroke="#0b3954" stroke-miterlimit="10"/><path id="lower_arm" d="M326.6,374.89c-1.72-3.67-5.02-7.98-14.68-5.62-8.5,2.08-10.43,10.12-9.05,15.72.6,2.42,23.51,86.99,24.54,87.86,1.03.87,4.24,5.61,11.96,3.73,7.73-1.89,6.6-8.16,6.52-10.19-.09-2.03-17.57-87.82-19.29-91.5ZM336.67,470.58c-1.6.39-3.21-.59-3.61-2.19s.59-3.21,2.19-3.61,3.21.59,3.61,2.19c.39,1.6-.59,3.21-2.19,3.61ZM317.02,385.11c-1.6.39-3.21-.59-3.61-2.19s.59-3.21,2.19-3.61,3.21.59,3.61,2.19-.59,3.21-2.19,3.61Z" fill="#bfd7ea" stroke="#0b3954" stroke-miterlimit="10"/><path id="hand_default" d="M355.78,499.91l-12.1-37.88s-4.13-4.43-10.37-2.74c-6.36,1.72-6.05,6.41-5.52,14.08.5,7.35-.09,10.92,1.99,17.14,1.9,5.69,6.82,26.79,14.07,23.84,2.6-1.06,4.94,19.56,11.38,18.51,6.22-1.01-.7-28.9.54-32.95ZM333.13,468.53c-.5-1.57.36-3.25,1.93-3.75s3.25.36,3.75,1.93c.5,1.57-.36,3.25-1.93,3.75-1.57.5-3.25-.36-3.75-1.93Z" fill="#bfd7ea" stroke="#0b3954" stroke-miterlimit="10"/><path id="thigh" d="M213.8,409.93c-15.65,23.02-.33,39.69,4.05,42.67,31.18,21.2,94.52,59.81,126.97,78.15,1.33.75,13.97,7.57,24.91-7.11,10.34-13.87-.25-24.9-3.17-27.16-15.61-12.06-52.59-48.24-61.21-55.32-13.24-10.88-65.49-69.54-91.54-31.22ZM356.11,514.14c-.93,1.36-2.78,1.72-4.14.79s-1.72-2.78-.79-4.14,2.78-1.72,4.14-.79,1.72,2.78.79,4.14ZM238.09,428.13c-.93,1.36-2.78,1.72-4.14.79s-1.72-2.78-.79-4.14c.93-1.36,2.78-1.72,4.14-.79,1.36.93,1.72,2.78.79,4.14Z" fill="#bfd7ea" stroke="#0b3954" stroke-miterlimit="10"/><path id="calves" d="M368.9,524.75c3.86-4.45,7.33-13.34.12-24.1-7.31-10.91-17.95-11.07-25.22-6.02-7.28,5.05-13.11,11.5-19.05,14.53-5.94,3.03-25.09,12.32-36.91,21.14-12.74,9.51-25.86,25.8-31.24,30.83-5.84,5.46-24.46,19.41-29.16,23.74-4.7,4.33-8.09,9.92-1.6,19.97,6.49,10.05,15.53,6.16,18.34,4.77,2.81-1.39,120.86-80.41,124.72-84.86ZM235.14,597.75c-1-1.31-.75-3.18.56-4.18s3.18-.75,4.18.56.75,3.18-.56,4.18-3.18.75-4.18-.56ZM351.23,514.21c-1-1.31-.75-3.18.56-4.18,1.31-1,3.18-.75,4.18.56,1,1.31.75,3.18-.56,4.18s-3.18.75-4.18-.56Z" fill="#bfd7ea" stroke="#0b3954" stroke-miterlimit="10"/><path id="head" d="M395.2,227.81s23.48-33.94-22.06-50c-45.16-15.93-73.15,52.98,2.81,86.59,6.55,2.9,6.87,1,13.64-17.28.65-1.76,5.49-1.04,6.63-2.37,2.76-3.22-1.03-16.93-1.03-16.93ZM351.59,237.78c-1.53-.6-2.29-2.34-1.68-3.87s2.34-2.29,3.87-1.68c1.53.6,2.29,2.34,1.68,3.87s-2.34,2.29-3.87,1.68ZM387.56,226.94l-5.91-5.25,7.9.19-1.99,5.06Z" fill="#bfd7ea" stroke="#0b3954" stroke-miterlimit="10"/><path id="foot" d="M305.03,620.03c-1.54-8.11-12.86-8.08-23.86-11.23-14.91-4.28-31.22-27.74-43.75-27.74-15.31,0-15.15,18.88-18.89,23.27-1.72,2.01-5.94,11.85-3.58,17.3,3.18,7.36,24.38,3.98,45.74,4.37,23.09.43,45.89,2.19,44.34-5.97ZM237.42,599.05c-1.65,0-2.98-1.34-2.98-2.98s1.34-2.98,2.98-2.98,2.98,1.34,2.98,2.98-1.34,2.98-2.98,2.98Z" fill="#bfd7ea" stroke="#0b3954" stroke-miterlimit="10"/></g></g></svg>