<?xml version="1.0" encoding="UTF-8"?><svg xmlns="http://www.w3.org/2000/svg" viewBox="0 0 611.81 800"><g id="Background_-_1"><rect width="1200" height="800" rx="45" ry="45" fill="none"/><rect x="49.05" y="50" width="500" height="700" rx="45" ry="45" fill="#fff" stroke="#0b3954" stroke-miterlimit="10"/></g><g id="Zeichenfläche_-_1"><g id="Standing_Puppet"><path id="neck" d="M260.47,196.81c-13.29.72-18.08,10.7-19.05,15.87-1.31,6.93,1.61,18.73,4.09,24.64,2.23,5.34,8.69,12.36,21.68,10.46,12.99-1.9,17.64-13.15,17.17-19.04-1.47-18.62-2.97-33.06-23.88-31.92ZM270.05,237.73c-1.65.36-3.31-.57-3.7-2.1s.62-3.05,2.27-3.42,3.31.57,3.7,2.1-.62,3.05-2.27,3.42ZM262.55,208.88c-1.65.36-3.31-.57-3.7-2.1s.62-3.05,2.27-3.42,3.31.57,3.7,2.1-.62,3.05-2.27,3.42Z" fill="#bfd7ea" stroke="#0b3954" stroke-miterlimit="10"/><path id="head" d="M284.62,171.35s-10.68-37.95-53.85-15.15c-42.81,22.61-7.88,85.5,69.45,51.7,6.66-2.91,5.4-4.33-4.3-20.54-.93-1.56,2.88-4.59,2.61-6.25-.65-3.98-13.9-9.77-13.9-9.77ZM263.06,208.91c-1.5.73-3.36.2-4.15-1.19s-.21-3.1,1.29-3.83,3.36-.2,4.15,1.19.21,3.1-1.29,3.83ZM278.81,176.31l-8.07,1,5.47-5.57,2.61,4.57Z" fill="#bfd7ea" stroke="#0b3954" stroke-miterlimit="10"/><path id="upper_body" d="M261.41,222.32c-37.3,2.97-27.37,66.18-18.52,92.53,10.16,30.26,15.16,37.65,17.34,77.39,1.83,33.19-2.26,29.71,2.07,40.79,2.97,7.62,17.49,11.13,35.99,8.58s41.99-11.34,37.48-60.69c-6.39-70-25.15-162.53-74.36-158.61ZM266.16,235.47c-.28-1.54.86-3,2.53-3.26s3.26.79,3.53,2.34-.86,3-2.53,3.26-3.26-.79-3.53-2.34ZM303.59,418.57c-1.67.25-3.26-.79-3.53-2.34s.86-3,2.53-3.26,3.26.79,3.53,2.34-.86,3-2.53,3.26Z" fill="#bfd7ea" stroke="#0b3954" stroke-miterlimit="10"/><path id="thigh" d="M302.64,389.94c-28.62,1.67-32.5,22.89-32.16,27.91,2.46,35.75,11.07,105.77,16.66,140.81.23,1.43,2.67,14.89,21.53,14.55,17.82-.33,20.11-14.7,20.1-18.21-.06-18.74,6.01-67.58,6.33-78.17.48-16.28,15.19-89.67-32.45-86.88ZM307.79,557.45c-1.69.1-3.15-1.09-3.26-2.65s1.18-2.91,2.87-3.01,3.15,1.09,3.26,2.65-1.18,2.91-2.87,3.01ZM303.19,418.78c-1.69.1-3.15-1.09-3.26-2.65s1.18-2.91,2.87-3.01,3.15,1.09,3.26,2.65-1.18,2.91-2.87,3.01Z" fill="#bfd7ea" stroke="#0b3954" stroke-miterlimit="10"/><path id="calves" d="M327.68,551.99c-.66-5.56-4.95-13.72-18.13-15.65-13.36-1.95-20.93,5.36-22.21,13.69-1.28,8.33-.49,16.56-2.36,22.66s-8.25,25.44-9.86,39.37c-1.74,15.02,1.39,34.68,1.42,41.68.03,7.59-2.46,29.58-2.48,35.65-.01,6.07,1.83,12.04,13.98,14.01,12.14,1.97,15.53-6.84,16.45-9.7s23.85-136.14,23.19-141.71ZM289.19,692.34c-1.69-.15-2.93-1.53-2.77-3.09s1.66-2.7,3.35-2.55,2.93,1.53,2.77,3.09-1.66,2.7-3.35,2.55ZM307.35,557.49c-1.69-.15-2.93-1.53-2.77-3.09s1.66-2.7,3.35-2.55,2.93,1.53,2.77,3.09-1.66,2.7-3.35,2.55Z" fill="#bfd7ea" stroke="#0b3954" stroke-miterlimit="10"/><path id="foot" d="M359.31,712.34c-1.59-7.7-13.24-7.68-24.58-10.67-15.36-4.06-32.16-26.35-45.07-26.35-15.77,0-15.61,17.94-19.46,22.1-1.77,1.91-6.12,11.26-3.69,16.44,3.28,6.99,25.11,3.78,47.12,4.16,23.79.4,47.28,2.08,45.68-5.67ZM289.66,692.41c-1.7,0-3.07-1.27-3.07-2.83s1.38-2.83,3.07-2.83,3.07,1.27,3.07,2.83-1.38,2.83-3.07,2.83Z" fill="#bfd7ea" stroke="#0b3954" stroke-miterlimit="10"/><path id="upper_arm" d="M254.59,282.11c8.23,7.65,22.12,7.14,27.57,2.15,6.49-5.95,69.02-68.28,71.31-71.92,2.3-3.65,5.45-9.81-2.64-17.67-7.9-7.67-14.47-5.99-18.79-2.64-4.32,3.35-16.84,13.17-26.89,20.97-27.33,21.23-72.77,48.45-50.56,69.11ZM343.18,202.59c1.18,1.12,1.16,2.92-.06,4.01s-3.16,1.07-4.35-.05-1.16-2.92.06-4.01,3.16-1.07,4.35.05ZM271.98,266.5c1.18,1.12,1.16,2.92-.06,4.01s-3.16,1.07-4.35-.05-1.16-2.92.06-4.01,3.16-1.07,4.35.05Z" fill="#bfd7ea" stroke="#0b3954" stroke-miterlimit="10"/><path id="lower_arm" d="M328.01,206.49c-.06,3.85,1.08,8.91,11.09,10.88,8.81,1.74,14.21-4.34,15.45-9.7.53-2.32,17.22-84.12,16.65-85.29-.57-1.17-1.41-6.55-9.42-8.14-8.01-1.58-9.79,4.25-10.62,6.02-.83,1.77-23.1,82.38-23.16,86.23ZM361.59,120.48c1.66.33,2.72,1.83,2.36,3.36s-1.99,2.51-3.65,2.18-2.72-1.83-2.36-3.36,1.99-2.51,3.65-2.18ZM341.48,201.71c1.66.33,2.72,1.83,2.36,3.36-.36,1.53-1.99,2.51-3.65,2.18s-2.72-1.83-2.36-3.36,1.99-2.51,3.65-2.18Z" fill="#bfd7ea" stroke="#0b3954" stroke-miterlimit="10"/><g id="hand_holding"><path d="M374.41,83.59l-10.64-1.93s-11.41,7.99-13.91,15.58c0,0-3.42,30.1,7.89,33.67,9.05,2.85,18.75-8.98,21.61-14.48.81-1.55,4.46-8.68,5.93-13.02.94-2.77.05-3.61-.55-6.34-.6-2.73,1.97-4.25-1.46-4.88-3.43-.63-6.08,6.66-5.78,9.31.15,1.29-9.1,6.76-9.21,6.5-1.85-4.27-8.39-7.17-8.45-7.5-.49-2.84,5.3-11.55,5.3-11.55,0,0,5.39.79,7.41-.82,0,0,7.02,3.61,8.41-.61.97-2.95-6.55-3.94-6.55-3.94ZM363.71,123.83c-.49,1.5-2.21,2.34-3.83,1.89s-2.54-2.04-2.05-3.54,2.21-2.34,3.83-1.89,2.54,2.04,2.05,3.54Z" fill="#bfd7ea" stroke="#0b3954" stroke-miterlimit="10"/><g id="cross"><line x1="365.78" y1="96.57" x2="372.38" y2="98.42" fill="#bfd7ea" stroke="#0b3954" stroke-miterlimit="10"/><line x1="370.17" y1="94.48" x2="368.16" y2="100.56" fill="#bfd7ea" stroke="#0b3954" stroke-miterlimit="10"/></g></g></g></g></svg>