<?xml version="1.0" encoding="UTF-8"?><svg xmlns="http://www.w3.org/2000/svg" viewBox="0 0 611.81 800"><g id="Background_-_1"><rect width="1200" height="800" rx="45" ry="45" fill="none"/><rect x="49.05" y="50" width="500" height="700" rx="45" ry="45" fill="#fff" stroke="#0b3954" stroke-miterlimit="10"/></g><g id="Zeichenfläche_-_1"><g id="Standing_Puppet"><path id="neck" d="M291.04,138.96c-13.26-2.36-20.51,7.15-22.79,12.43-3.06,7.08-3.2,20.35-2.28,27.25.83,6.22,5.39,15.23,18.65,16.27,13.26,1.04,20.71-9.86,21.76-16.27,3.32-20.2,5.53-35.97-15.33-39.68ZM290,184.85c-1.72,0-3.11-1.39-3.11-3.11s1.39-3.11,3.11-3.11,3.11,1.39,3.11,3.11-1.39,3.11-3.11,3.11ZM290,152.32c-1.72,0-3.11-1.39-3.11-3.11s1.39-3.11,3.11-3.11,3.11,1.39,3.11,3.11-1.39,3.11-3.11,3.11Z" fill="#bfd7ea" stroke="#0b3954" stroke-miterlimit="10"/><path id="head" d="M328.08,125.83s9.81-41.87-40.48-40.06c-49.87,1.8-50.7,79.29,35.78,82.88,7.45.31,7.05-1.66,6.63-21.96-.04-1.95,4.92-3.1,5.53-4.83,1.45-4.17-7.46-16.02-7.46-16.02ZM289.61,152.14c-1.72,0-3.11-1.39-3.11-3.11s1.39-3.11,3.11-3.11,3.11,1.39,3.11,3.11-1.39,3.11-3.11,3.11ZM320.34,127.9l-7.74-2.83,7.74-2.83v5.66Z" fill="#bfd7ea" stroke="#0b3954" stroke-miterlimit="10"/><path id="upper_body" d="M284.58,166.92c-37.76-2.9-39.09,67.14-34.95,97.11,4.76,34.42,8.43,43.24,3.54,86.6-4.08,36.23-7.54,31.78-5.2,44.49,1.61,8.73,15.47,14.92,34.4,15.2s43.93-5.38,48.21-59.54c6.08-76.81,3.81-180.04-46-183.86ZM286.99,181.94c0-1.72,1.39-3.11,3.11-3.11s3.11,1.39,3.11,3.11-1.39,3.11-3.11,3.11-3.11-1.39-3.11-3.11ZM291.77,386.25c-1.72,0-3.11-1.39-3.11-3.11s1.39-3.11,3.11-3.11,3.11,1.39,3.11,3.11-1.39,3.11-3.11,3.11Z" fill="#bfd7ea" stroke="#0b3954" stroke-miterlimit="10"/><path id="thigh" d="M293.23,354.55c-29.01,0-34.4,22.97-34.4,28.49,0,39.29,3.83,116.49,7.05,155.2.13,1.58,1.66,16.47,20.72,17.3,18.01.78,21.32-14.8,21.55-18.65,1.24-20.51,10.76-73.59,11.81-85.16,1.62-17.79,21.55-97.18-26.73-97.18ZM286.81,538.24c-1.72,0-3.11-1.39-3.11-3.11s1.39-3.11,3.11-3.11,3.11,1.39,3.11,3.11-1.39,3.11-3.11,3.11ZM291.78,386.15c-1.72,0-3.11-1.39-3.11-3.11s1.39-3.11,3.11-3.11,3.11,1.39,3.11,3.11-1.39,3.11-3.11,3.11Z" fill="#bfd7ea" stroke="#0b3954" stroke-miterlimit="10"/><path id="calves" d="M306.96,530.39c-1.24-6.01-6.42-14.5-19.89-15.33-13.66-.84-20.51,7.87-20.93,17.09-.41,9.22,1.24,18.13,0,24.97s-5.64,28.57-5.8,43.94c-.17,16.56,5.04,37.73,5.8,45.36.83,8.29.62,32.53,1.24,39.16.62,6.63,3.11,12.97,15.54,13.95s14.92-8.97,15.54-12.18,9.74-150.95,8.5-156.96ZM282.92,687.35c-1.72,0-3.11-1.39-3.11-3.11s1.39-3.11,3.11-3.11,3.11,1.39,3.11,3.11-1.39,3.11-3.11,3.11ZM287.07,538.37c-1.72,0-3.11-1.39-3.11-3.11s1.39-3.11,3.11-3.11,3.11,1.39,3.11,3.11-1.39,3.11-3.11,3.11Z" fill="#bfd7ea" stroke="#0b3954" stroke-miterlimit="10"/><path id="foot" d="M352.71,709.6c-1.6-8.45-13.4-8.42-24.87-11.71-15.54-4.46-32.53-28.91-45.59-28.91-15.96,0-15.79,19.67-19.69,24.24-1.79,2.1-6.19,12.35-3.73,18.03,3.32,7.67,25.4,4.15,47.66,4.56,24.06.44,47.82,2.29,46.21-6.22ZM282.26,687.74c-1.72,0-3.11-1.39-3.11-3.11s1.39-3.11,3.11-3.11,3.11,1.39,3.11,3.11-1.39,3.11-3.11,3.11Z" fill="#bfd7ea" stroke="#0b3954" stroke-miterlimit="10"/><path id="upper_arm" d="M290.08,196.02c-11.82.11-21.22,10.57-21.14,18.34.1,9.26,4.97,102.26,6.22,106.71,1.24,4.46,3.86,11.46,15.75,11.6,11.6.14,14.92-5.91,15.33-11.6.41-5.7,1.53-22.28,2.49-35.54,2.59-36.06,13.26-89.81-18.65-89.52ZM290.08,321.07c-1.72,0-3.11-1.39-3.11-3.11s1.39-3.11,3.11-3.11,3.11,1.39,3.11,3.11-1.39,3.11-3.11,3.11ZM290.08,220.58c-1.72,0-3.11-1.39-3.11-3.11s1.39-3.11,3.11-3.11,3.11,1.39,3.11,3.11-1.39,3.11-3.11,3.11Z" fill="#bfd7ea" stroke="#0b3954" stroke-miterlimit="10"/><path id="lower_arm" d="M301.25,311.02c-1.41-3.98-4.4-8.79-14.66-7.32-9.02,1.29-11.84,9.44-10.98,15.39.37,2.57,15.59,92.6,16.57,93.6.98,1.01,3.83,6.25,12.03,5.07,8.2-1.18,7.67-7.8,7.79-9.91.12-2.11-9.35-92.86-10.75-96.84ZM302.03,411.29c-1.7.24-3.27-.94-3.52-2.64s.94-3.27,2.64-3.52,3.27.94,3.52,2.64-.94,3.27-2.64,3.52ZM290.28,320.66c-1.7.24-3.27-.94-3.52-2.64s.94-3.27,2.64-3.52,3.27.94,3.52,2.64-.94,3.27-2.64,3.52Z" fill="#bfd7ea" stroke="#0b3954" stroke-miterlimit="10"/><path id="hand_default" d="M316.37,445.1l-5.89-41.02s-3.48-5.26-10.19-4.61c-6.83.67-7.32,5.55-8.11,13.51-.75,7.64-1.98,11.2-.91,17.96.97,6.17,2.38,28.71,10.34,26.93,2.85-.64,1.69,20.95,8.5,20.99,6.57.03,4.27-29.82,6.25-33.76ZM298.51,408.93c-.24-1.7.94-3.27,2.64-3.52s3.27.94,3.52,2.64-.94,3.27-2.64,3.52-3.27-.94-3.52-2.64Z" fill="#bfd7ea" stroke="#0b3954" stroke-miterlimit="10"/></g></g></svg>