<?xml version="1.0" encoding="UTF-8"?><svg xmlns="http://www.w3.org/2000/svg" viewBox="0 0 1200 800"><g id="Background_-_2"><rect x="622.64" y="100.65" width="500" height="600" rx="45" ry="45" fill="#fff" stroke="#0b3954" stroke-miterlimit="10"/><rect x="67.49" y="100" width="500" height="600" rx="45" ry="45" fill="#fff" stroke="#0b3954" stroke-miterlimit="10"/></g><g id="Zeichenfläche_-_2"><g id="Sitting_Puppet"><rect x="928.77" y="496.35" width="204.96" height="10.61" rx="2.53" ry="2.53" transform="translate(542 1538.85) rotate(-90.69)" fill="#cccecc" stroke="#8d8e8d" stroke-miterlimit="10"/><rect x="808.55" y="399.15" width="265.78" height="10.61" rx="2.53" ry="2.53" fill="#cccecc" stroke="#8d8e8d" stroke-miterlimit="10"/><rect x="928.48" y="593.5" width="145.85" height="10.61" rx="2.53" ry="2.53" fill="#cccecc" stroke="#8d8e8d" stroke-miterlimit="10"/><rect x="695.07" y="516.17" width="100.54" height="10.61" rx="2.53" ry="2.53" transform="translate(223.86 1266.81) rotate(-90)" fill="#cccecc" stroke="#8d8e8d" stroke-miterlimit="10"/><path d="M674.29,460.59h142.1c1.44,0,2.61,1.17,2.61,2.61v12.01c0,1.44-1.17,2.61-2.61,2.61,0,0-53.29,5.21-71.05,5.21s-71.05-5.21-71.05-5.21c-1.44,0-2.61-1.17-2.61-2.61v-12.01c0-1.44,1.17-2.61,2.61-2.61Z" fill="#cccecc" stroke="#8d8e8d" stroke-miterlimit="10"/><path d="M687.41,315.77c-3,18.39,6.02,51.25,6.06,68.4.04,18.43-9.3,56.8-4.62,73.67.39,1.39-1.17,2.61-2.61,2.61h-12.01c-1.44,0-2.61-1.17-2.61-2.61v-142.1c0-1.44,1.17-2.61,2.61-2.61h4.06c1.44,0,9.47.53,9.13,2.64Z" fill="#cccecc" stroke="#8d8e8d" stroke-miterlimit="10"/><polygon points="750.89 556.89 808.43 578.97 807.51 584.16 748.26 571.7 750.89 556.89" fill="#cccecc" stroke="#8d8e8d" stroke-miterlimit="10"/><polygon points="740.07 556.89 682.53 578.97 683.46 584.16 742.71 571.7 740.07 556.89" fill="#cccecc" stroke="#8d8e8d" stroke-miterlimit="10"/><circle cx="682.64" cy="591.27" r="11.71" fill="#cccecc" stroke="#8d8e8d" stroke-miterlimit="10"/><circle cx="809.47" cy="591.27" r="11.71" fill="#cccecc" stroke="#8d8e8d" stroke-miterlimit="10"/><path id="neck" d="M794.59,252.59c-7.11-8.65-16.82-6.55-21.11-4.44-5.75,2.83-13,11.14-16.14,15.99-2.83,4.38-4.81,12.53,3.01,20.34,7.82,7.81,18.41,4.94,22.53,1.46,13-10.98,22.9-19.75,11.72-33.35ZM769.17,281.04c-1.08-.93-1.21-2.56-.29-3.64.93-1.08,2.56-1.21,3.64-.29s1.21,2.56.29,3.64-2.56,1.21-3.64.29ZM786.72,260.48c-1.08-.93-1.21-2.56-.29-3.64s2.56-1.21,3.64-.29,1.21,2.56.29,3.64-2.56,1.21-3.64.29Z" fill="#bfd7ea" stroke="#0b3954" stroke-miterlimit="10"/><path id="head" d="M823.02,244.44s13.52-33.09-27.99-38.16c-41.16-5.03-51.95,58.46,18.55,72.69,6.08,1.23,6-.44,8.31-17.16.22-1.61,4.45-1.9,5.17-3.25,1.73-3.24-4.03-14.12-4.03-14.12ZM788.01,261.02c-1.41-.22-2.37-1.55-2.15-2.96s1.55-2.37,2.96-2.15,2.37,1.55,2.15,2.96-1.55,2.37-2.96,2.15ZM816.4,245.13l-5.98-3.33,6.72-1.31-.74,4.65Z" fill="#bfd7ea" stroke="#0b3954" stroke-miterlimit="10"/><path id="upper_body" d="M769.89,265.77c-29.57-10.78-46.32,44.98-49.71,69.9-3.9,28.62-2.94,36.49-16.56,70.1-11.38,28.08-13.15,23.75-14.12,34.44-.66,7.35,9.04,15.4,24.13,19.86,15.08,4.46,36.36,5.52,51.91-36.86,22.06-60.11,43.36-143.23,4.35-157.45ZM768.45,278.34c.38-1.37,1.81-2.18,3.18-1.79s2.18,1.81,1.79,3.18-1.81,2.18-3.18,1.79-2.18-1.81-1.79-3.18ZM726.53,442.92c-1.37-.38-2.18-1.81-1.79-3.18s1.81-2.18,3.18-1.79,2.18,1.81,1.79,3.18-1.81,2.18-3.18,1.79Z" fill="#bfd7ea" stroke="#0b3954" stroke-miterlimit="10"/><path id="thigh" d="M703.75,436.47c-2.83,23.94,15.61,30.63,20.16,31.17,32.42,3.83,96.52,8.19,128.77,9.31,1.32.05,13.76.24,16.3-15.41,2.4-14.79-10.14-19.04-13.29-19.6-16.81-3.03-59.68-16.05-69.13-18.05-14.52-3.07-78.1-27.26-82.81,12.59ZM854.73,459.68c-.17,1.42-1.45,2.43-2.87,2.26s-2.43-1.45-2.26-2.87c.17-1.42,1.45-2.43,2.87-2.26s2.43,1.45,2.26,2.87ZM729.69,440.75c-.17,1.42-1.45,2.43-2.87,2.26s-2.43-1.45-2.26-2.87,1.45-2.43,2.87-2.26,2.43,1.45,2.26,2.87Z" fill="#bfd7ea" stroke="#0b3954" stroke-miterlimit="10"/><path id="upper_arm" d="M760.31,280.96c-9.78-.85-18.39,7.06-18.94,13.49-.66,7.67-4.01,84.99-3.33,88.77.67,3.78,2.28,9.78,12.11,10.85,9.59,1.04,12.81-3.7,13.61-8.38.8-4.68,3.04-18.31,4.88-29.2,5.01-29.62,18.1-73.24-8.32-75.53ZM750.38,384.41c-1.42-.14-2.46-1.4-2.32-2.82s1.4-2.46,2.82-2.32,2.46,1.4,2.32,2.82-1.4,2.46-2.82,2.32ZM758.36,301.28c-1.42-.14-2.46-1.4-2.32-2.82s1.4-2.46,2.82-2.32,2.46,1.4,2.32,2.82-1.4,2.46-2.82,2.32Z" fill="#bfd7ea" stroke="#0b3954" stroke-miterlimit="10"/><path id="lower_arm" d="M747.03,371.66c-3.47.52-7.86,2.21-8.27,10.81-.36,7.57,5.85,11.15,10.83,11.38,2.16.1,78.01,1.83,78.99,1.19.98-.64,5.7-2.14,6.03-9.02.33-6.88-5.16-7.49-6.86-7.91-1.7-.43-77.25-6.97-80.72-6.45ZM828.97,386.79c-.07,1.42-1.28,2.52-2.7,2.46s-2.52-1.28-2.46-2.7,1.28-2.52,2.7-2.46,2.52,1.28,2.46,2.7ZM753.16,382.13c-.07,1.42-1.28,2.52-2.7,2.46s-2.52-1.28-2.46-2.7,1.28-2.52,2.7-2.46,2.52,1.28,2.46,2.7Z" fill="#bfd7ea" stroke="#0b3954" stroke-miterlimit="10"/><path id="hand_default" d="M858.8,382.28l-34.26-3.56s-4.95,1.74-5.78,7.28c-.85,5.64,2.99,7.02,9.25,9.27,6.01,2.15,8.63,3.86,14.29,4.37,5.17.46,23.62,3.89,23.8-2.88.06-2.43,17.23,2.88,18.64-2.6,1.36-5.29-23.17-9.48-25.95-11.87ZM826.04,389.35c-1.42-.15-2.45-1.42-2.3-2.84.15-1.42,1.42-2.45,2.84-2.3s2.45,1.42,2.3,2.84-1.42,2.45-2.84,2.3Z" fill="#bfd7ea" stroke="#0b3954" stroke-miterlimit="10"/><path id="calves" d="M866.22,449.55c-2.69-4.33-9.17-9.47-19.91-6.26-10.89,3.26-13.75,12.02-11.43,19.33,2.32,7.31,6.17,13.79,7.16,19.48.99,5.69,3.79,23.91,8.07,35.94,4.61,12.97,14.74,27.99,17.53,33.72,3.02,6.23,9.81,25.2,12.19,30.19,2.39,4.99,6.14,9.23,16.12,6.42,9.98-2.8,9.07-11.27,8.63-13.96s-35.66-120.54-38.36-124.88ZM892.45,578.88c-1.34.49-2.82-.19-3.32-1.53s.19-2.82,1.53-3.32,2.82.19,3.32,1.53c.49,1.34-.19,2.82-1.53,3.32ZM852.98,461.48c-1.34.49-2.82-.19-3.32-1.53s.19-2.82,1.53-3.32,2.82.19,3.32,1.53-.19,2.82-1.53,3.32Z" fill="#bfd7ea" stroke="#0b3954" stroke-miterlimit="10"/><path id="foot" d="M953.82,578.09c-3.45-6.26-12.76-3.19-22.67-2.82-13.43.5-33.17-14.42-43.48-11.05-12.6,4.12-7.38,19.62-9.28,24.24-.87,2.12-1.7,11.35,1.71,15.2,4.6,5.2,21.13-3.29,38.82-8.72,19.12-5.87,38.36-10.56,34.89-16.85ZM892.52,579.03c-1.36.44-2.81-.3-3.26-1.65s.3-2.81,1.65-3.26,2.81.3,3.26,1.65c.44,1.36-.3,2.81-1.65,3.26Z" fill="#bfd7ea" stroke="#0b3954" stroke-miterlimit="10"/><rect x="361.01" y="496.18" width="205.43" height="10.64" rx="2.53" ry="2.53" transform="translate(-32.18 971.21) rotate(-90.69)" fill="#cccecc" stroke="#8d8e8d" stroke-miterlimit="10"/><rect x="240.52" y="398.76" width="266.4" height="10.64" rx="2.53" ry="2.53" fill="#cccecc" stroke="#8d8e8d" stroke-miterlimit="10"/><rect x="360.72" y="593.56" width="146.19" height="10.64" rx="2.53" ry="2.53" fill="#cccecc" stroke="#8d8e8d" stroke-miterlimit="10"/><rect x="139.94" y="517.23" width="100.77" height="10.64" rx="2.53" ry="2.53" transform="translate(-332.22 712.87) rotate(-90)" fill="#cccecc" stroke="#8d8e8d" stroke-miterlimit="10"/><path d="M119.11,461.52h142.43c1.45,0,2.62,1.17,2.62,2.62v12.04c0,1.45-1.17,2.62-2.62,2.62,0,0-53.41,5.22-71.21,5.22s-71.21-5.22-71.21-5.22c-1.45,0-2.62-1.17-2.62-2.62v-12.04c0-1.45,1.17-2.62,2.62-2.62Z" fill="#cccecc" stroke="#8d8e8d" stroke-miterlimit="10"/><path d="M132.26,316.37c-3.01,18.44,6.04,51.37,6.07,68.55.04,18.47-9.32,56.93-4.63,73.84.39,1.39-1.17,2.62-2.62,2.62h-12.04c-1.45,0-2.62-1.17-2.62-2.62v-142.43c0-1.45,1.17-2.62,2.62-2.62h4.07c1.45,0,9.49.54,9.15,2.65Z" fill="#cccecc" stroke="#8d8e8d" stroke-miterlimit="10"/><polygon points="195.35 558.58 253.02 580.71 252.1 585.92 192.71 573.42 195.35 558.58" fill="#cccecc" stroke="#8d8e8d" stroke-miterlimit="10"/><polygon points="185.05 558.04 127.38 580.17 128.3 585.38 187.69 572.88 185.05 558.04" fill="#cccecc" stroke="#8d8e8d" stroke-miterlimit="10"/><circle cx="127.49" cy="592.5" r="11.74" fill="#cccecc" stroke="#8d8e8d" stroke-miterlimit="10"/><circle cx="254.6" cy="592.5" r="11.74" fill="#cccecc" stroke="#8d8e8d" stroke-miterlimit="10"/><path id="neck-2" d="M169.73,237.69c-11.05-1.97-17.09,5.95-18.99,10.36-2.55,5.9-2.66,16.95-1.9,22.7.69,5.18,4.49,12.69,15.53,13.55,11.05.86,17.25-8.22,18.12-13.55,2.76-16.83,4.61-29.96-12.77-33.05ZM168.87,275.92c-1.43,0-2.59-1.16-2.59-2.59s1.16-2.59,2.59-2.59,2.59,1.16,2.59,2.59-1.16,2.59-2.59,2.59ZM168.87,248.82c-1.43,0-2.59-1.16-2.59-2.59s1.16-2.59,2.59-2.59,2.59,1.16,2.59,2.59-1.16,2.59-2.59,2.59Z" fill="#bfd7ea" stroke="#0b3954" stroke-miterlimit="10"/><path id="head-2" d="M200.99,226.89s8.17-34.88-33.71-33.37c-41.54,1.5-42.23,66.05,29.8,69.04,6.21.26,5.87-1.38,5.52-18.3-.03-1.63,4.1-2.58,4.6-4.03,1.21-3.48-6.21-13.35-6.21-13.35ZM168.94,248.81c-1.43,0-2.59-1.16-2.59-2.59s1.16-2.59,2.59-2.59,2.59,1.16,2.59,2.59-1.16,2.59-2.59,2.59ZM194.55,228.61l-6.44-2.36,6.44-2.36v4.72Z" fill="#bfd7ea" stroke="#0b3954" stroke-miterlimit="10"/><path id="upper_body-2" d="M164.44,260.87c-31.45-2.42-32.56,55.92-29.11,80.89,3.96,28.67,7.02,36.02,2.95,72.14-3.4,30.17-6.28,26.47-4.33,37.06,1.34,7.27,12.89,12.43,28.65,12.66,15.76.23,36.59-4.48,40.16-49.59,5.06-63.98,3.18-149.96-38.32-153.15ZM166.45,273.39c0-1.43,1.16-2.59,2.59-2.59s2.59,1.16,2.59,2.59-1.16,2.59-2.59,2.59-2.59-1.16-2.59-2.59ZM170.43,443.57c-1.43,0-2.59-1.16-2.59-2.59s1.16-2.59,2.59-2.59,2.59,1.16,2.59,2.59-1.16,2.59-2.59,2.59Z" fill="#bfd7ea" stroke="#0b3954" stroke-miterlimit="10"/><path id="thigh-2" d="M146.81,438.07c-1.71,24.1,17.06,29.93,21.65,30.26,32.64,2.32,97.02,3.68,129.37,3.3,1.32-.02,13.78-.41,15.6-16.2,1.71-14.92-11.04-18.58-14.22-19-16.97-2.24-60.51-13.28-70.06-14.83-14.69-2.39-79.48-23.63-82.32,16.48ZM299.06,454.23c-.1,1.43-1.34,2.5-2.77,2.4s-2.5-1.34-2.4-2.77c.1-1.43,1.34-2.5,2.77-2.4s2.5,1.34,2.4,2.77ZM172.98,441.14c-.1,1.43-1.34,2.5-2.77,2.4s-2.5-1.34-2.4-2.77c.1-1.43,1.34-2.5,2.77-2.4s2.5,1.34,2.4,2.77Z" fill="#bfd7ea" stroke="#0b3954" stroke-miterlimit="10"/><path id="calves-2" d="M313.05,450.16c-1-5.01-5.25-12.12-16.47-12.9-11.37-.79-17.14,6.42-17.55,14.1-.41,7.68.92,15.11-.17,20.8-1.08,5.69-4.89,23.76-5.12,36.56-.25,13.79,3.95,31.46,4.53,37.82.64,6.91.3,27.1.78,32.63.47,5.53,2.5,10.82,12.85,11.72,10.35.89,12.49-7.37,13.03-10.05s9.11-125.67,8.12-130.68ZM291.99,580.74c-1.43-.01-2.58-1.18-2.57-2.61s1.18-2.58,2.61-2.57,2.58,1.18,2.57,2.61-1.18,2.58-2.61,2.57ZM296.43,456.67c-1.43-.01-2.58-1.18-2.57-2.61s1.18-2.58,2.61-2.57,2.58,1.18,2.57,2.61-1.18,2.58-2.61,2.57Z" fill="#bfd7ea" stroke="#0b3954" stroke-miterlimit="10"/><path id="foot-2" d="M350.59,598.91c-1.34-7.04-11.16-7.01-20.71-9.75-12.94-3.71-27.1-24.08-37.97-24.08-13.29,0-13.15,16.39-16.4,20.19-1.49,1.75-5.15,10.29-3.11,15.02,2.76,6.39,21.16,3.46,39.7,3.8,20.04.37,39.83,1.9,38.49-5.18ZM291.9,580.7c-1.43,0-2.59-1.16-2.59-2.59s1.16-2.59,2.59-2.59,2.59,1.16,2.59,2.59-1.16,2.59-2.59,2.59Z" fill="#bfd7ea" stroke="#0b3954" stroke-miterlimit="10"/><path id="upper_arm-2" d="M168.32,286c-9.84.09-17.67,8.8-17.61,15.27.08,7.71,4.14,85.18,5.18,88.89,1.04,3.71,3.22,9.54,13.12,9.67,9.67.12,12.43-4.92,12.77-9.67.35-4.75,1.28-18.56,2.07-29.6,2.16-30.03,11.05-74.81-15.53-74.56ZM168.32,390.16c-1.43,0-2.59-1.16-2.59-2.59s1.16-2.59,2.59-2.59,2.59,1.16,2.59,2.59-1.16,2.59-2.59,2.59ZM168.32,306.45c-1.43,0-2.59-1.16-2.59-2.59s1.16-2.59,2.59-2.59,2.59,1.16,2.59,2.59-1.16,2.59-2.59,2.59Z" fill="#bfd7ea" stroke="#0b3954" stroke-miterlimit="10"/><path id="lower_arm-2" d="M164.36,377.46c-3.46.65-7.8,2.5-7.9,11.13-.09,7.59,6.26,10.95,11.26,11.01,2.16.02,78.21-.97,79.16-1.65.96-.68,5.64-2.35,5.72-9.25.08-6.9-5.44-7.31-7.16-7.68-1.72-.37-77.62-4.2-81.08-3.55ZM246.99,389.66c-.02,1.43-1.19,2.58-2.62,2.56s-2.58-1.19-2.56-2.62c.02-1.43,1.19-2.58,2.62-2.56s2.58,1.19,2.56,2.62ZM170.89,387.72c-.02,1.43-1.19,2.58-2.62,2.56s-2.58-1.19-2.56-2.62,1.19-2.58,2.62-2.56,2.58,1.19,2.56,2.62Z" fill="#bfd7ea" stroke="#0b3954" stroke-miterlimit="10"/><path id="hand_default-2" d="M276.26,381.53h-34.52s-4.75,2.25-5.01,7.85c-.26,5.71,3.71,6.69,10.18,8.28,6.21,1.52,9,2.96,14.7,2.88,5.2-.07,23.95,1.43,23.43-5.34-.19-2.43,17.48,1.08,18.31-4.52.81-5.41-24.08-7.05-27.1-9.15ZM244.33,391.97c-1.43,0-2.59-1.16-2.59-2.59s1.16-2.59,2.59-2.59,2.59,1.16,2.59,2.59c0,1.43-1.16,2.59-2.59,2.59Z" fill="#bfd7ea" stroke="#0b3954" stroke-miterlimit="10"/></g></g><g id="Symbols_-_2"><circle cx="530" cy="130" r="65" fill="#2daa37"/><path d="M517.75,159.13c-1.52,0-3.03-.58-4.19-1.73l-23.13-23.13c-2.31-2.31-2.31-6.06,0-8.38,2.31-2.31,6.06-2.31,8.38,0l18.94,18.94,41.34-41.34c2.31-2.31,6.06-2.31,8.38,0,2.31,2.31,2.31,6.06,0,8.38l-45.53,45.53c-1.16,1.16-2.67,1.73-4.19,1.73Z" fill="#fff"/><circle cx="1093" cy="130" r="65" fill="#e62828"/><path d="M1099.6,130l19.15-19.15c1.82-1.82,1.82-4.78,0-6.6-1.82-1.82-4.78-1.82-6.6,0l-19.15,19.15-19.15-19.15c-1.82-1.82-4.78-1.82-6.6,0-1.82,1.82-1.82,4.78,0,6.6l19.15,19.15-19.15,19.15c-1.82,1.82-1.82,4.78,0,6.6.91.91,2.11,1.37,3.3,1.37s2.39-.46,3.3-1.37l19.15-19.15,19.15,19.15c.91.91,2.11,1.37,3.3,1.37s2.39-.46,3.3-1.37c1.82-1.82,1.82-4.78,0-6.6l-19.15-19.15Z" fill="#fff"/></g></svg>