<?xml version="1.0" encoding="UTF-8"?><svg xmlns="http://www.w3.org/2000/svg" viewBox="0 0 1200 800"><g id="Background_-_2"><rect x="622.64" y="100.65" width="500" height="600" rx="45" ry="45" fill="#fff" stroke="#0b3954" stroke-miterlimit="10"/><rect x="67.49" y="100" width="500" height="600" rx="45" ry="45" fill="#fff" stroke="#0b3954" stroke-miterlimit="10"/></g><g id="Zeichenfläche_-_2"><g id="Lifting_Puppet"><rect x="282.05" y="483.28" width="143.17" height="143.17" fill="#ead9bb" stroke="#0b3954" stroke-miterlimit="10"/><path id="neck" d="M359.1,227.53c-9.17-9.11-20.09-5.58-24.77-2.66-6.28,3.92-13.65,14.3-16.69,20.24-2.74,5.36-4.08,14.96,5.81,23.02,9.89,8.07,21.72,3.54,26.05-.93,13.66-14.12,24.02-25.34,9.6-39.68ZM333.19,263.16c-1.35-.94-1.69-2.8-.75-4.15s2.8-1.69,4.15-.75,1.69,2.8.75,4.15c-.94,1.35-2.8,1.69-4.15.75ZM350.98,237.51c-1.35-.94-1.69-2.8-.75-4.15.94-1.35,2.8-1.69,4.15-.75s1.69,2.8.75,4.15-2.8,1.69-4.15.75Z" fill="#bfd7ea" stroke="#0b3954" stroke-miterlimit="10"/><path id="upper_body" d="M337.81,245.68c-29.48-21.26-65.59,35.43-77.19,62.06-13.32,30.57-14.72,39.63-40.41,72.7-21.46,27.63-22.07,22.26-26.51,33.84-3.05,7.96,5.21,19.96,20.57,29.65,15.36,9.69,38.67,17.56,69.26-24.65,43.39-59.87,93.16-145.55,54.28-173.59ZM332.27,259.19c.86-1.41,2.69-1.85,4.1-.99s1.85,2.69.99,4.1-2.69,1.85-4.1.99-1.85-2.69-.99-4.1ZM234,428.91c-1.41-.86-1.85-2.69-.99-4.1s2.69-1.85,4.1-.99,1.85,2.69.99,4.1-2.69,1.85-4.1.99Z" fill="#bfd7ea" stroke="#0b3954" stroke-miterlimit="10"/><path id="upper_arm" d="M317.06,265.49c-11.34.07-20.39,10.07-20.34,17.53.06,8.88,4.44,98.15,5.62,102.43,1.18,4.28,3.67,11.01,15.07,11.19,11.13.17,14.34-5.62,14.75-11.09.42-5.47,1.54-21.38,2.5-34.09,2.61-34.59,13.02-86.14-17.61-85.96ZM316.66,385.49c-1.65,0-2.98-1.35-2.97-2.99,0-1.65,1.35-2.98,2.99-2.97s2.98,1.35,2.97,2.99-1.35,2.98-2.99,2.97ZM316.98,289.05c-1.65,0-2.98-1.35-2.97-2.99s1.35-2.98,2.99-2.97c1.65,0,2.98,1.35,2.97,2.99s-1.35,2.98-2.99,2.97Z" fill="#bfd7ea" stroke="#0b3954" stroke-miterlimit="10"/><path id="lower_arm" d="M326.6,374.89c-1.72-3.67-5.02-7.98-14.68-5.62-8.5,2.08-10.43,10.12-9.05,15.72.6,2.42,23.51,86.99,24.54,87.86,1.03.87,4.24,5.61,11.96,3.73,7.73-1.89,6.6-8.16,6.52-10.19-.09-2.03-17.57-87.82-19.29-91.5ZM336.67,470.58c-1.6.39-3.21-.59-3.61-2.19s.59-3.21,2.19-3.61,3.21.59,3.61,2.19c.39,1.6-.59,3.21-2.19,3.61ZM317.02,385.11c-1.6.39-3.21-.59-3.61-2.19s.59-3.21,2.19-3.61,3.21.59,3.61,2.19-.59,3.21-2.19,3.61Z" fill="#bfd7ea" stroke="#0b3954" stroke-miterlimit="10"/><path id="hand_default" d="M355.78,499.91l-12.1-37.88s-4.13-4.43-10.37-2.74c-6.36,1.72-6.05,6.41-5.52,14.08.5,7.35-.09,10.92,1.99,17.14,1.9,5.69,6.82,26.79,14.07,23.84,2.6-1.06,4.94,19.56,11.38,18.51,6.22-1.01-.7-28.9.54-32.95ZM333.13,468.53c-.5-1.57.36-3.25,1.93-3.75s3.25.36,3.75,1.93c.5,1.57-.36,3.25-1.93,3.75-1.57.5-3.25-.36-3.75-1.93Z" fill="#bfd7ea" stroke="#0b3954" stroke-miterlimit="10"/><path id="thigh" d="M213.8,409.93c-15.65,23.02-.33,39.69,4.05,42.67,31.18,21.2,94.52,59.81,126.97,78.15,1.33.75,13.97,7.57,24.91-7.11,10.34-13.87-.25-24.9-3.17-27.16-15.61-12.06-52.59-48.24-61.21-55.32-13.24-10.88-65.49-69.54-91.54-31.22ZM356.11,514.14c-.93,1.36-2.78,1.72-4.14.79s-1.72-2.78-.79-4.14,2.78-1.72,4.14-.79,1.72,2.78.79,4.14ZM238.09,428.13c-.93,1.36-2.78,1.72-4.14.79s-1.72-2.78-.79-4.14c.93-1.36,2.78-1.72,4.14-.79,1.36.93,1.72,2.78.79,4.14Z" fill="#bfd7ea" stroke="#0b3954" stroke-miterlimit="10"/><path id="calves" d="M368.9,524.75c3.86-4.45,7.33-13.34.12-24.1-7.31-10.91-17.95-11.07-25.22-6.02-7.28,5.05-13.11,11.5-19.05,14.53-5.94,3.03-25.09,12.32-36.91,21.14-12.74,9.51-25.86,25.8-31.24,30.83-5.84,5.46-24.46,19.41-29.16,23.74-4.7,4.33-8.09,9.92-1.6,19.97,6.49,10.05,15.53,6.16,18.34,4.77,2.81-1.39,120.86-80.41,124.72-84.86ZM235.14,597.75c-1-1.31-.75-3.18.56-4.18s3.18-.75,4.18.56.75,3.18-.56,4.18-3.18.75-4.18-.56ZM351.23,514.21c-1-1.31-.75-3.18.56-4.18,1.31-1,3.18-.75,4.18.56,1,1.31.75,3.18-.56,4.18s-3.18.75-4.18-.56Z" fill="#bfd7ea" stroke="#0b3954" stroke-miterlimit="10"/><path id="head" d="M395.2,227.81s23.48-33.94-22.06-50c-45.16-15.93-73.15,52.98,2.81,86.59,6.55,2.9,6.87,1,13.64-17.28.65-1.76,5.49-1.04,6.63-2.37,2.76-3.22-1.03-16.93-1.03-16.93ZM351.59,237.78c-1.53-.6-2.29-2.34-1.68-3.87s2.34-2.29,3.87-1.68c1.53.6,2.29,2.34,1.68,3.87s-2.34,2.29-3.87,1.68ZM387.56,226.94l-5.91-5.25,7.9.19-1.99,5.06Z" fill="#bfd7ea" stroke="#0b3954" stroke-miterlimit="10"/><path id="foot" d="M305.03,620.03c-1.54-8.11-12.86-8.08-23.86-11.23-14.91-4.28-31.22-27.74-43.75-27.74-15.31,0-15.15,18.88-18.89,23.27-1.72,2.01-5.94,11.85-3.58,17.3,3.18,7.36,24.38,3.98,45.74,4.37,23.09.43,45.89,2.19,44.34-5.97ZM237.42,599.05c-1.65,0-2.98-1.34-2.98-2.98s1.34-2.98,2.98-2.98,2.98,1.34,2.98,2.98-1.34,2.98-2.98,2.98Z" fill="#bfd7ea" stroke="#0b3954" stroke-miterlimit="10"/><rect x="846.27" y="481.79" width="143.35" height="143.35" fill="#ead9bb" stroke="#0b3954" stroke-miterlimit="10"/><path id="neck-2" d="M975.83,291.85c4.78-12.03-2.77-20.69-7.31-23.85-6.08-4.24-18.54-6.94-25.21-7.4-6.01-.42-15.38,2.13-18.91,14.42-3.53,12.28,5.29,21.39,11.11,23.62,18.38,7.02,32.79,12.14,40.31-6.78ZM932.82,282.02c.33-1.62,1.91-2.66,3.53-2.33,1.62.33,2.66,1.91,2.33,3.53-.33,1.62-1.91,2.66-3.53,2.33s-2.66-1.91-2.33-3.53ZM963.45,288.3c.33-1.62,1.91-2.66,3.53-2.33,1.62.33,2.66,1.91,2.33,3.53s-1.91,2.66-3.53,2.33c-1.62-.33-2.66-1.91-2.33-3.53Z" fill="#bfd7ea" stroke="#0b3954" stroke-miterlimit="10"/><path id="head-2" d="M998.94,316.96s41.16-3.7,24.31-49.02c-16.7-44.94-87.64-22.29-64.79,57.67,1.97,6.89,3.64,5.93,22.04-.59,1.77-.63,4.32,3.55,6.08,3.58,4.25.06,12.36-11.64,12.36-11.64ZM963.32,289.82c-.52-1.57.33-3.26,1.9-3.77,1.57-.52,3.26.33,3.77,1.9s-.33,3.26-1.9,3.77-3.26-.33-3.77-1.9ZM994.72,310.53l.25-7.91,4.92,6.2-5.17,1.71Z" fill="#bfd7ea" stroke="#0b3954" stroke-miterlimit="10"/><path id="upper_body-2" d="M948.41,274.02c-6.4-35.82-71.87-20.18-98.75-9.1-30.87,12.72-38.19,18.26-79.7,24.16-34.68,4.93-31.38.64-42.63,5.89-7.73,3.61-10.15,17.99-5.84,35.66,4.3,17.67,15.59,39.56,67,30.49,72.9-12.86,168.38-39.85,159.93-87.1ZM935.02,279.88c1.6-.41,3.23.55,3.64,2.14s-.55,3.23-2.14,3.64-3.23-.55-3.64-2.14.55-3.23,2.14-3.64ZM746.13,333.56c-.41-1.6.55-3.23,2.14-3.64s3.23.55,3.64,2.14c.41,1.6-.55,3.23-2.14,3.64s-3.23-.55-3.64-2.14Z" fill="#bfd7ea" stroke="#0b3954" stroke-miterlimit="10"/><path id="thigh-2" d="M739.34,306.96c-25.49,11.27-21.3,33.55-19.16,38.4,15.26,34.53,48.63,100.89,66.49,133.66.73,1.34,7.86,13.83,24.93,7.16,16.13-6.31,12.98-21.29,11.69-24.76-6.88-18.51-19.13-68.85-22.71-79.43-5.49-16.26-18.82-93.78-61.25-75.02ZM805.05,470.89c-1.51.67-3.27-.02-3.94-1.52s.02-3.27,1.52-3.94,3.27.02,3.94,1.52-.02,3.27-1.52,3.94ZM750.34,335.29c-1.51.67-3.27-.02-3.94-1.52s.02-3.27,1.52-3.94,3.27.02,3.94,1.52-.02,3.27-1.52,3.94Z" fill="#bfd7ea" stroke="#0b3954" stroke-miterlimit="10"/><path id="calves-2" d="M823.11,472.31c1.47-5.71.59-15.23-10.68-21.64-11.43-6.5-21.03-1.88-25.29,5.9-4.26,7.78-6.59,16.17-10.56,21.54-3.96,5.37-16.95,22.27-23.59,35.46-7.15,14.22-11.61,34.69-14.18,41.59-2.79,7.5-13.22,28.33-15.49,34.32-2.27,5.98-2.8,12.51,7.51,18.6,10.31,6.1,16.67-1.43,18.56-3.94s72.24-126.12,73.71-131.83ZM736,597.57c-1.48-.73-2.09-2.51-1.37-4s2.51-2.09,4-1.37,2.09,2.51,1.37,4-2.52,2.09-4,1.37ZM802.58,470.78c-1.48-.73-2.09-2.52-1.37-4s2.52-2.09,4-1.37,2.09,2.51,1.37,4c-.73,1.48-2.51,2.09-4,1.37Z" fill="#bfd7ea" stroke="#0b3954" stroke-miterlimit="10"/><path id="foot-2" d="M804.86,618.71c-1.54-8.12-12.87-8.09-23.89-11.25-14.93-4.28-31.26-27.77-43.8-27.77-15.33,0-15.17,18.9-18.91,23.29-1.72,2.02-5.95,11.87-3.59,17.32,3.19,7.37,24.41,3.99,45.79,4.38,23.12.43,45.95,2.2,44.4-5.97ZM737.17,597.7c-1.65,0-2.99-1.34-2.99-2.99s1.34-2.99,2.99-2.99,2.99,1.34,2.99,2.99-1.34,2.99-2.99,2.99Z" fill="#bfd7ea" stroke="#0b3954" stroke-miterlimit="10"/><path id="upper_arm-2" d="M900.44,262.64c-11.27-1.4-21.55,7.37-22.46,14.78-1.09,8.83-8.27,98.02-7.65,102.42.62,4.4,2.22,11.4,13.52,13.05,11.03,1.61,14.96-3.73,16.08-9.1,1.12-5.37,4.29-21.03,6.89-33.53,7.05-34.01,24.05-83.85-6.38-87.63ZM884.54,381.74c-1.63-.22-2.78-1.72-2.57-3.36s1.72-2.78,3.36-2.57c1.63.22,2.78,1.72,2.57,3.36s-1.72,2.78-3.36,2.57ZM897.31,286.03c-1.63-.22-2.78-1.72-2.57-3.36.22-1.63,1.72-2.78,3.36-2.57s2.78,1.72,2.57,3.36-1.72,2.78-3.36,2.57Z" fill="#bfd7ea" stroke="#0b3954" stroke-miterlimit="10"/><path id="lower_arm-2" d="M895.39,371.53c-1.62-3.73-4.8-8.13-14.54-6.04-8.56,1.84-10.72,9.84-9.5,15.49.53,2.44,21.12,87.72,22.13,88.62,1.01.9,4.09,5.74,11.87,4.06,7.79-1.68,6.83-7.99,6.8-10.02-.03-2.03-15.15-88.38-16.77-92.11ZM902.82,467.59c-1.61.35-3.2-.68-3.55-2.29-.35-1.61.68-3.2,2.29-3.55s3.2.68,3.55,2.29-.68,3.2-2.29,3.55ZM885.52,381.5c-1.61.35-3.2-.68-3.55-2.29s.68-3.2,2.29-3.55,3.2.68,3.55,2.29-.68,3.2-2.29,3.55Z" fill="#bfd7ea" stroke="#0b3954" stroke-miterlimit="10"/><path id="hand_default-2" d="M923.27,496.64l-13.22-37.56s-4.26-4.31-10.46-2.44c-6.32,1.91-5.86,6.6-5.11,14.25.72,7.34.23,10.93,2.5,17.1,2.07,5.63,7.61,26.61,14.78,23.45,2.57-1.13,5.51,19.43,11.93,18.19,6.2-1.2-1.55-28.9-.42-32.99ZM899.68,465.89c-.55-1.56.27-3.26,1.83-3.81,1.56-.55,3.26.27,3.81,1.83s-.27,3.26-1.83,3.81-3.26-.27-3.81-1.83Z" fill="#bfd7ea" stroke="#0b3954" stroke-miterlimit="10"/></g></g><g id="Symbols_-_2"><circle cx="530" cy="130" r="65" fill="#2daa37"/><path d="M517.75,159.13c-1.52,0-3.03-.58-4.19-1.73l-23.13-23.13c-2.31-2.31-2.31-6.06,0-8.38,2.31-2.31,6.06-2.31,8.38,0l18.94,18.94,41.34-41.34c2.31-2.31,6.06-2.31,8.38,0,2.31,2.31,2.31,6.06,0,8.38l-45.53,45.53c-1.16,1.16-2.67,1.73-4.19,1.73Z" fill="#fff"/><circle cx="1093" cy="130" r="65" fill="#e62828"/><path d="M1099.6,130l19.15-19.15c1.82-1.82,1.82-4.78,0-6.6-1.82-1.82-4.78-1.82-6.6,0l-19.15,19.15-19.15-19.15c-1.82-1.82-4.78-1.82-6.6,0-1.82,1.82-1.82,4.78,0,6.6l19.15,19.15-19.15,19.15c-1.82,1.82-1.82,4.78,0,6.6.91.91,2.11,1.37,3.3,1.37s2.39-.46,3.3-1.37l19.15-19.15,19.15,19.15c.91.91,2.11,1.37,3.3,1.37s2.39-.46,3.3-1.37c1.82-1.82,1.82-4.78,0-6.6l-19.15-19.15Z" fill="#fff"/></g></svg>