<?xml version="1.0" encoding="UTF-8"?><svg xmlns="http://www.w3.org/2000/svg" viewBox="0 0 1200 800"><g id="Background_-_2"><rect x="622.64" y="100.65" width="500" height="600" rx="45" ry="45" fill="#fff" stroke="#0b3954" stroke-miterlimit="10"/><rect x="67.49" y="100" width="500" height="600" rx="45" ry="45" fill="#fff" stroke="#0b3954" stroke-miterlimit="10"/></g><g id="Zeichenfläche_-_2"><g id="Pushing_Puppet"><path d="M299.59,576.52v-141.25c0-20.36-22.04-78.68-22.04-78.68,0-1.27,1.02-2.3,2.27-2.3h4.14c1.25,0,2.27,1.03,2.27,2.3,0,0,22.04,58.44,22.04,78.83v141.1c0,1.27-1.02,2.3-2.27,2.3h-4.14c-1.25,0-2.27-1.03-2.27-2.3Z" fill="#cccecc" stroke="#8d8e8d" stroke-miterlimit="10"/><circle cx="293.26" cy="601.98" r="12.9" fill="#cccecc" stroke="#8d8e8d" stroke-miterlimit="10"/><circle cx="504.25" cy="601.98" r="12.9" fill="#cccecc" stroke="#8d8e8d" stroke-miterlimit="10"/><rect x="283.81" y="593.4" width="18.9" height="5.42" rx="2.53" ry="2.53" transform="translate(889.36 302.85) rotate(90)" fill="#cccecc" stroke="#8d8e8d" stroke-miterlimit="10"/><rect x="495.38" y="593.4" width="18.9" height="5.42" rx="2.53" ry="2.53" transform="translate(1100.94 91.27) rotate(90)" fill="#cccecc" stroke="#8d8e8d" stroke-miterlimit="10"/><rect x="275.46" y="573.86" width="243.99" height="15.22" rx="2.53" ry="2.53" fill="#cccecc" stroke="#8d8e8d" stroke-miterlimit="10"/><path d="M281.08,573.86c0-10.29,8.34-18.63,18.63-18.63v18.63h-18.63Z" fill="#cccecc" stroke="#8d8e8d" stroke-miterlimit="10"/><path id="neck" d="M220.52,223.54c-8.17-4.87-15.34-.4-18.17,2.52-3.79,3.92-7.2,12.65-8.32,17.43-1.01,4.31-.25,11.41,8.26,15.41,8.5,4,16.15-1.34,18.44-5.31,7.24-12.52,12.64-22.38-.21-30.05ZM208.36,253.61c-1.13-.43-1.71-1.7-1.28-2.83s1.7-1.71,2.83-1.28,1.71,1.7,1.28,2.83-1.7,1.71-2.83,1.28ZM216.49,232.11c-1.13-.43-1.71-1.7-1.28-2.83s1.7-1.71,2.83-1.28,1.71,1.7,1.28,2.83-1.7,1.71-2.83,1.28Z" fill="#bfd7ea" stroke="#0b3954" stroke-miterlimit="10"/><path id="head" d="M247.51,220.58s13.71-27.11-21.11-34.24c-34.53-7.07-48.01,45.99,10.76,62.86,5.07,1.45,5.11.04,8.21-13.97.3-1.35,3.9-1.31,4.6-2.4,1.69-2.63-2.45-12.24-2.45-12.24ZM216.71,232.23c-1.18-.29-1.9-1.47-1.62-2.65s1.47-1.9,2.65-1.62,1.9,1.47,1.62,2.65-1.47,1.9-2.65,1.62ZM241.85,220.71l-4.84-3.23,5.78-.66-.94,3.89Z" fill="#bfd7ea" stroke="#0b3954" stroke-miterlimit="10"/><path id="thigh" d="M169.52,371.26c-18.66,8.46-15.43,24.82-13.82,28.37,11.46,25.27,36.46,73.83,49.82,97.79.55.98,5.87,10.11,18.38,5.09,11.82-4.75,9.39-15.74,8.42-18.29-5.19-13.56-14.55-50.48-17.25-58.24-4.15-11.92-14.49-68.81-45.55-54.72ZM218.98,491.31c-1.1.5-2.41.01-2.91-1.09s-.01-2.41,1.09-2.91,2.41-.01,2.91,1.09.01,2.41-1.09,2.91ZM177.81,392.01c-1.1.5-2.41.01-2.91-1.09s-.01-2.41,1.09-2.91,2.41-.01,2.91,1.09.01,2.41-1.09,2.91Z" fill="#bfd7ea" stroke="#0b3954" stroke-miterlimit="10"/><path id="calves" d="M232.41,488.25c-.13-4.33-2.71-10.87-11.98-13.09-9.4-2.24-15.23,2.99-16.64,9.35-1.41,6.37-1.34,12.77-3.04,17.38-1.7,4.61-7.4,19.2-9.38,29.87-2.13,11.5-1.08,26.87-1.48,32.27-.43,5.87-3.52,22.71-3.9,27.4-.37,4.69.59,9.4,9.12,11.59s11.47-4.43,12.3-6.59,25.13-103.86,24.99-108.19ZM196.6,594.56c-1.19-.21-1.99-1.35-1.79-2.54s1.35-1.99,2.54-1.79,1.99,1.35,1.79,2.54-1.35,1.99-2.54,1.79ZM217.6,491.39c-1.19-.21-1.99-1.35-1.79-2.54s1.35-1.99,2.54-1.79,1.99,1.35,1.79,2.54-1.35,1.99-2.54,1.79Z" fill="#bfd7ea" stroke="#0b3954" stroke-miterlimit="10"/><path id="foot" d="M246.71,609.98c-1.11-5.97-9.44-5.99-17.53-8.34-10.97-3.19-22.9-20.52-32.12-20.55-11.27-.05-11.21,13.85-13.98,17.07-1.27,1.48-4.41,8.71-2.69,12.72,2.32,5.43,17.93,3.01,33.65,3.36,16.99.38,33.78,1.76,32.66-4.25ZM197.01,594.33c-1.21,0-2.19-.99-2.19-2.2s.99-2.19,2.2-2.19,2.19.99,2.19,2.2c0,1.21-.99,2.19-2.2,2.19Z" fill="#bfd7ea" stroke="#0b3954" stroke-miterlimit="10"/><path id="upper_body" d="M207.92,240.36c-25.44-8.28-38.02,39.58-40.17,60.85-2.47,24.42-1.42,31.09-11.99,60.04-8.84,24.19-10.47,20.56-10.98,29.68-.35,6.26,8.14,12.82,21.08,16.16s31.05,3.62,43.01-32.84c16.96-51.72,32.6-122.96-.96-133.89ZM207.07,251.08c.29-1.18,1.47-1.9,2.65-1.62s1.9,1.47,1.62,2.65-1.47,1.9-2.65,1.62-1.9-1.47-1.62-2.65ZM176.33,392.13c-1.18-.29-1.9-1.47-1.62-2.65s1.47-1.9,2.65-1.62c1.18.29,1.9,1.47,1.62,2.65s-1.47,1.9-2.65,1.62Z" fill="#bfd7ea" stroke="#0b3954" stroke-miterlimit="10"/><path id="thigh-2" d="M182.7,370.62c-19.92-4.83-27.44,10.04-28.36,13.83-6.54,26.97-16.77,80.61-21.01,107.72-.17,1.11-1.61,11.59,11.34,15.33,12.23,3.54,17.1-6.61,17.9-9.21,4.27-13.88,19.64-48.73,22.29-56.5,4.07-11.94,30.98-63.13-2.17-71.17ZM147.7,495.65c-1.18-.29-1.9-1.47-1.62-2.65s1.47-1.9,2.65-1.62,1.9,1.47,1.62,2.65-1.47,1.9-2.65,1.62ZM176.44,392.07c-1.18-.29-1.9-1.47-1.62-2.65s1.47-1.9,2.65-1.62,1.9,1.47,1.62,2.65-1.47,1.9-2.65,1.62Z" fill="#bfd7ea" stroke="#0b3954" stroke-miterlimit="10"/><path id="calves-2" d="M162.75,493.62c.15-4.33-1.99-11.03-11.1-13.84-9.24-2.85-15.39,1.99-17.21,8.25-1.82,6.26-2.17,12.65-4.16,17.14-1.99,4.49-8.63,18.68-11.3,29.2-2.88,11.34-2.83,26.74-3.57,32.11-.81,5.83-4.99,22.44-5.67,27.09-.68,4.66-.03,9.42,8.35,12.16s11.74-3.67,12.7-5.78,31.83-102.01,31.97-106.34ZM120.11,597.37c-1.18-.29-1.9-1.47-1.62-2.65s1.47-1.9,2.65-1.62,1.9,1.47,1.62,2.65-1.47,1.9-2.65,1.62ZM147.76,495.78c-1.18-.29-1.9-1.47-1.62-2.65s1.47-1.9,2.65-1.62,1.9,1.47,1.62,2.65-1.47,1.9-2.65,1.62Z" fill="#bfd7ea" stroke="#0b3954" stroke-miterlimit="10"/><path id="foot-2" d="M170.37,612.96c-1.13-5.97-9.46-5.95-17.57-8.27-10.98-3.15-22.98-20.42-32.2-20.42-11.27,0-11.15,13.9-13.91,17.13-1.26,1.48-4.37,8.72-2.64,12.73,2.34,5.42,17.94,2.93,33.67,3.22,16.99.31,33.78,1.61,32.64-4.39ZM120.6,597.52c-1.21,0-2.2-.98-2.2-2.2s.98-2.2,2.2-2.2,2.2.98,2.2,2.2-.98,2.2-2.2,2.2Z" fill="#bfd7ea" stroke="#0b3954" stroke-miterlimit="10"/><path id="upper_arm" d="M200.61,257.75c-8.35.04-15.02,7.39-14.99,12.88.04,6.54,3.17,72.25,4.03,75.4.86,3.15,2.69,8.11,11.09,8.25,8.2.14,10.56-4.12,10.87-8.15.31-4.02,1.16-15.74,1.88-25.1,1.95-25.46,9.67-63.4-12.87-63.3ZM200.18,346.09c-1.21,0-2.19-.99-2.19-2.21s.99-2.19,2.21-2.19,2.19.99,2.19,2.21-.99,2.19-2.21,2.19ZM200.52,275.09c-1.21,0-2.19-.99-2.19-2.21s.99-2.19,2.21-2.19,2.19.99,2.19,2.21-.99,2.19-2.21,2.19Z" fill="#bfd7ea" stroke="#0b3954" stroke-miterlimit="10"/><path id="lower_arm" d="M197.7,334.93c-2.97.3-6.77,1.55-7.48,8.83-.63,6.41,4.49,9.71,8.72,10.12,1.83.18,66.16,4.84,67.01,4.34.86-.5,4.93-1.58,5.5-7.41.57-5.83-4.06-6.57-5.49-7.01-1.43-.43-65.29-9.17-68.26-8.87ZM266.63,351.22c-.12,1.21-1.19,2.09-2.4,1.97s-2.09-1.19-1.97-2.4,1.19-2.09,2.4-1.97,2.09,1.19,1.97,2.4ZM202.47,344.07c-.12,1.21-1.19,2.09-2.4,1.97s-2.09-1.19-1.97-2.4,1.19-2.09,2.4-1.97,2.09,1.19,1.97,2.4Z" fill="#bfd7ea" stroke="#0b3954" stroke-miterlimit="10"/><g id="hand_holding"><path d="M293.32,364.77l2.57-7.31s-4.95-8.96-10.51-11.58c0,0-22.73-5.78-26.63,1.82-3.12,6.08,4.95,14.26,8.87,16.9,1.11.74,6.2,4.13,9.37,5.65,2.02.97,2.76.44,4.92.32,2.16-.12,3.06,1.87,3.9-.49.84-2.36-4.48-5.04-6.54-5.13-1.01-.04-4.25-7.19-4.04-7.24,3.46-.83,6.36-5.13,6.62-5.14,2.23-.03,8.31,5.04,8.31,5.04,0,0-1.16,3.72-.13,5.33,0,0-3.49,4.56-.4,6.01,2.16,1.02,3.7-4.19,3.7-4.19ZM263.56,352.71c-1.1-.52-1.57-1.82-1.05-2.92s1.82-1.57,2.92-1.05,1.57,1.82,1.05,2.92-1.82,1.57-2.92,1.05Z" fill="#bfd7ea" stroke="#0b3954" stroke-miterlimit="10"/></g><path d="M882.13,577.83v-142.17c0-20.49-22.19-79.2-22.19-79.2,0-1.28,1.02-2.32,2.29-2.32h4.16c1.26,0,2.29,1.04,2.29,2.32,0,0,22.19,58.82,22.19,79.35v142.02c0,1.28-1.02,2.32-2.29,2.32h-4.16c-1.26,0-2.29-1.04-2.29-2.32Z" fill="#cccecc" stroke="#8d8e8d" stroke-miterlimit="10"/><circle cx="875.75" cy="603.46" r="12.99" fill="#cccecc" stroke="#8d8e8d" stroke-miterlimit="10"/><circle cx="1088.12" cy="603.46" r="12.99" fill="#cccecc" stroke="#8d8e8d" stroke-miterlimit="10"/><rect x="866.24" y="594.82" width="19.02" height="5.45" rx="2.53" ry="2.53" transform="translate(1473.3 -278.2) rotate(90)" fill="#cccecc" stroke="#8d8e8d" stroke-miterlimit="10"/><rect x="1079.2" y="594.82" width="19.02" height="5.45" rx="2.53" ry="2.53" transform="translate(1686.26 -491.16) rotate(90)" fill="#cccecc" stroke="#8d8e8d" stroke-miterlimit="10"/><rect x="857.83" y="575.15" width="245.59" height="15.32" rx="2.53" ry="2.53" fill="#cccecc" stroke="#8d8e8d" stroke-miterlimit="10"/><path d="M863.49,575.15c0-10.35,8.39-18.75,18.75-18.75v18.75h-18.75Z" fill="#cccecc" stroke="#8d8e8d" stroke-miterlimit="10"/><path id="neck-2" d="M822.83,269.62c-3.47-8.93-11.92-9.82-15.98-9.25-5.43.76-13.55,5.58-17.39,8.69-3.47,2.8-7.26,8.9-2.99,17.34,4.27,8.44,13.65,8.93,17.92,7.2,13.5-5.45,23.89-9.94,18.44-23.98ZM794.57,285.96c-.63-1.04-.3-2.4.74-3.04s2.4-.3,3.04.74.3,2.4-.74,3.04-2.4.3-3.04-.74ZM814.33,273.93c-.63-1.04-.3-2.4.74-3.04s2.4-.3,3.04.74.3,2.4-.74,3.04-2.4.3-3.04-.74Z" fill="#bfd7ea" stroke="#0b3954" stroke-miterlimit="10"/><path id="head-2" d="M847.82,267.87s17.85-24.83-15.67-37.34c-33.24-12.41-54.9,38.27.92,64.18,4.81,2.23,5.08.83,10.34-12.62.51-1.29,4.08-.69,4.95-1.67,2.09-2.35-.53-12.56-.53-12.56ZM815.38,274.67c-1.13-.47-1.66-1.76-1.19-2.89s1.76-1.66,2.89-1.19,1.66,1.76,1.19,2.89-1.76,1.66-2.89,1.19ZM842.17,267.12l-4.31-3.97,5.85.25-1.54,3.72Z" fill="#bfd7ea" stroke="#0b3954" stroke-miterlimit="10"/><path id="thigh-3" d="M708.15,385.7c-17.55,10.84-12.22,26.75-10.16,30.09,14.68,23.76,45.86,69.03,62.27,91.25.67.91,7.16,9.35,19,2.72,11.19-6.26,7.36-16.92,6.07-19.33-6.91-12.87-21-48.53-24.68-55.93-5.67-11.37-23.28-66.84-52.49-48.8ZM772.92,499.22c-1.04.64-2.4.32-3.04-.72s-.32-2.4.72-3.04,2.4-.32,3.04.72.32,2.4-.72,3.04ZM719.09,405.36c-1.04.64-2.4.32-3.04-.72s-.32-2.4.72-3.04,2.4-.32,3.04.72.32,2.4-.72,3.04Z" fill="#bfd7ea" stroke="#0b3954" stroke-miterlimit="10"/><path id="calves-3" d="M786,500.89c1.24-4.18.85-11.25-7.31-16.3-8.27-5.12-15.5-1.96-18.86,3.67-3.36,5.64-5.32,11.78-8.4,15.64s-13.14,16.01-18.41,25.58c-5.68,10.32-9.53,25.33-11.62,30.37-2.27,5.47-10.55,20.59-12.39,24.95-1.84,4.36-2.41,9.17,5.05,13.96,7.46,4.79,12.36-.6,13.83-2.41s56.86-91.3,58.1-95.48ZM718.16,591.15c-1.08-.58-1.48-1.92-.9-2.99s1.92-1.48,2.99-.9,1.48,1.92.9,2.99-1.92,1.48-2.99.9ZM770.86,499.2c-1.08-.58-1.48-1.92-.9-2.99s1.92-1.48,2.99-.9,1.48,1.92.9,2.99-1.92,1.48-2.99.9Z" fill="#bfd7ea" stroke="#0b3954" stroke-miterlimit="10"/><path id="foot-3" d="M769.27,606.86c-1.14-6.01-9.53-5.99-17.68-8.32-11.05-3.17-23.13-20.55-32.41-20.55-11.34,0-11.23,13.99-14,17.24-1.27,1.49-4.4,8.78-2.65,12.82,2.36,5.45,18.06,2.95,33.89,3.24,17.11.32,34,1.63,32.86-4.42ZM719.18,591.32c-1.22,0-2.21-.99-2.21-2.21s.99-2.21,2.21-2.21,2.21.99,2.21,2.21-.99,2.21-2.21,2.21Z" fill="#bfd7ea" stroke="#0b3954" stroke-miterlimit="10"/><path id="upper_body-2" d="M800.44,274.1c-19.22-18.86-52,18.63-63.47,36.84-13.17,20.91-15.21,27.38-37.72,48.74-18.8,17.84-18.65,13.84-23.19,21.83-3.12,5.49,1.59,15.2,11.76,24.01,10.17,8.81,26.36,17.18,53.49-10.32,38.47-39.01,84.49-96.21,59.14-121.1ZM794.87,283.38c.79-.93,2.18-1.05,3.11-.27s1.05,2.18.27,3.11-2.18,1.05-3.11.27-1.05-2.18-.27-3.11ZM703.94,396.73c-.93-.79-1.05-2.18-.27-3.11s2.18-1.05,3.11-.27,1.05,2.18.27,3.11-2.18,1.05-3.11.27Z" fill="#bfd7ea" stroke="#0b3954" stroke-miterlimit="10"/><path id="thigh-4" d="M706.17,374.81c-20.63.29-24.23,16.67-24.18,20.6.39,27.93,3.87,82.79,6.54,110.28.11,1.12,1.34,11.7,14.9,12.1,12.81.38,15.01-10.74,15.14-13.47.68-14.6,6.92-52.43,7.56-60.67.98-12.66,14.37-69.31-19.96-68.83ZM703.41,505.48c-1.22.02-2.22-.96-2.24-2.18s.96-2.22,2.18-2.24,2.22.96,2.24,2.18-.96,2.22-2.18,2.24ZM705.45,397.29c-1.22.02-2.22-.96-2.24-2.18s.96-2.22,2.18-2.24,2.22.96,2.24,2.18-.96,2.22-2.18,2.24Z" fill="#bfd7ea" stroke="#0b3954" stroke-miterlimit="10"/><path id="calves-4" d="M717.39,506.83c1.24-4.18.85-11.25-7.31-16.3-8.27-5.12-15.5-1.96-18.86,3.67-3.36,5.64-5.32,11.78-8.4,15.64s-13.14,16.01-18.41,25.58c-5.68,10.32-9.53,25.33-11.62,30.37-2.27,5.47-10.55,20.59-12.39,24.95-1.84,4.36-2.41,9.17,5.05,13.96,7.46,4.79,12.36-.6,13.83-2.41s56.86-91.3,58.1-95.48ZM649.55,597.09c-1.08-.58-1.48-1.92-.9-2.99s1.92-1.48,2.99-.9,1.48,1.92.9,2.99-1.92,1.48-2.99.9ZM702.25,505.14c-1.08-.58-1.48-1.92-.9-2.99s1.92-1.48,2.99-.9,1.48,1.92.9,2.99-1.92,1.48-2.99.9Z" fill="#bfd7ea" stroke="#0b3954" stroke-miterlimit="10"/><path id="foot-4" d="M700.68,612.92c-1.14-6.01-9.53-5.99-17.68-8.32-11.05-3.17-23.13-20.55-32.41-20.55-11.34,0-11.23,13.99-14,17.24-1.27,1.49-4.4,8.78-2.65,12.82,2.36,5.45,18.06,2.95,33.89,3.24,17.11.32,34,1.63,32.86-4.42ZM650.59,597.37c-1.22,0-2.21-.99-2.21-2.21s.99-2.21,2.21-2.21,2.21.99,2.21,2.21-.99,2.21-2.21,2.21Z" fill="#bfd7ea" stroke="#0b3954" stroke-miterlimit="10"/><path id="upper_arm-2" d="M777.81,284.94c-8.39.49-14.7,8.25-14.36,13.77.39,6.57,7.13,72.45,8.17,75.57,1.04,3.12,3.15,8,11.59,7.69,8.25-.31,10.39-4.72,10.48-8.78.09-4.06.3-15.88.52-25.32.57-25.7,6.26-64.25-16.39-62.92ZM782.21,373.75c-1.22.06-2.26-.88-2.32-2.1s.88-2.26,2.1-2.32,2.26.88,2.32,2.1-.88,2.26-2.1,2.32ZM778.67,302.38c-1.22.06-2.26-.88-2.32-2.1s.88-2.26,2.1-2.32,2.26.88,2.32,2.1-.88,2.26-2.1,2.32Z" fill="#bfd7ea" stroke="#0b3954" stroke-miterlimit="10"/><path id="lower_arm-2" d="M776.44,364.07c-2.7,1.33-5.84,3.84-3.95,10.96,1.66,6.27,7.65,7.58,11.78,6.48,1.79-.48,64.1-18.68,64.73-19.46.63-.78,4.1-3.22,2.59-8.92-1.51-5.7-6.14-4.77-7.64-4.68-1.5.09-64.8,14.29-67.5,15.62ZM847.18,355.22c.31,1.18-.39,2.39-1.57,2.7s-2.39-.39-2.7-1.57.39-2.39,1.57-2.7c1.18-.31,2.39.39,2.7,1.57ZM784.15,371.02c.31,1.18-.39,2.39-1.57,2.7s-2.39-.39-2.7-1.57.39-2.39,1.57-2.7,2.39.39,2.7,1.57Z" fill="#bfd7ea" stroke="#0b3954" stroke-miterlimit="10"/><g id="hand_holding-2"><path d="M876.02,364.37l1.22-7.7s-6.53-7.97-12.51-9.56c0,0-23.55-1.61-26.04,6.63-1.98,6.58,7.49,13.22,11.85,15.12,1.23.54,6.88,2.96,10.3,3.89,2.18.59,2.81-.07,4.93-.58,2.12-.51,3.37,1.3,3.77-1.19.4-2.48-5.35-4.18-7.4-3.89-1,.14-5.51-6.35-5.31-6.43,3.28-1.45,5.37-6.23,5.62-6.28,2.2-.43,9.14,3.48,9.14,3.48,0,0-.47,3.89.83,5.3,0,0-2.63,5.15.69,6.03,2.33.62,2.9-4.82,2.9-4.82ZM844.37,357.82c-1.18-.31-1.88-1.52-1.57-2.7s1.52-1.88,2.7-1.57,1.88,1.52,1.57,2.7-1.52,1.88-2.7,1.57Z" fill="#bfd7ea" stroke="#0b3954" stroke-miterlimit="10"/></g></g></g><g id="Symbols_-_2"><circle cx="530" cy="130" r="65" fill="#2daa37"/><path d="M517.75,159.13c-1.52,0-3.03-.58-4.19-1.73l-23.13-23.13c-2.31-2.31-2.31-6.06,0-8.38,2.31-2.31,6.06-2.31,8.38,0l18.94,18.94,41.34-41.34c2.31-2.31,6.06-2.31,8.38,0,2.31,2.31,2.31,6.06,0,8.38l-45.53,45.53c-1.16,1.16-2.67,1.73-4.19,1.73Z" fill="#fff"/><circle cx="1093" cy="130" r="65" fill="#e62828"/><path d="M1099.6,130l19.15-19.15c1.82-1.82,1.82-4.78,0-6.6-1.82-1.82-4.78-1.82-6.6,0l-19.15,19.15-19.15-19.15c-1.82-1.82-4.78-1.82-6.6,0-1.82,1.82-1.82,4.78,0,6.6l19.15,19.15-19.15,19.15c-1.82,1.82-1.82,4.78,0,6.6.91.91,2.11,1.37,3.3,1.37s2.39-.46,3.3-1.37l19.15-19.15,19.15,19.15c.91.91,2.11,1.37,3.3,1.37s2.39-.46,3.3-1.37c1.82-1.82,1.82-4.78,0-6.6l-19.15-19.15Z" fill="#fff"/></g></svg>