<?xml version="1.0" encoding="UTF-8"?><svg xmlns="http://www.w3.org/2000/svg" viewBox="0 0 1200 800"><g id="Background_-_1"><rect width="1200" height="800" rx="45" ry="45" fill="none"/><rect x="49.05" y="50" width="500" height="700" rx="45" ry="45" fill="#fff" stroke="#0b3954" stroke-miterlimit="10"/><rect x="646.76" y="50" width="500" height="700" rx="45" ry="45" fill="#fff" stroke="#0b3954" stroke-miterlimit="10"/></g><g id="Symbols_-_1"><circle cx="511.11" cy="83.81" r="65" fill="#bfd7ea"/><path d="M498.85,112.94c-1.52,0-3.03-.58-4.19-1.73l-23.13-23.13c-2.31-2.31-2.31-6.06,0-8.38,2.31-2.31,6.06-2.31,8.38,0l18.94,18.94,41.34-41.34c2.31-2.31,6.06-2.31,8.38,0,2.31,2.31,2.31,6.06,0,8.38l-45.53,45.53c-1.16,1.16-2.67,1.73-4.19,1.73Z" fill="#bfd7ea"/><circle cx="1111.91" cy="83.81" r="65" fill="#bfd7ea"/><path d="M1118.51,83.81l19.15-19.15c1.82-1.82,1.82-4.78,0-6.6-1.82-1.82-4.78-1.82-6.6,0l-19.15,19.15-19.15-19.15c-1.82-1.82-4.78-1.82-6.6,0-1.82,1.82-1.82,4.78,0,6.6l19.15,19.15-19.15,19.15c-1.82,1.82-1.82,4.78,0,6.6.91.91,2.11,1.37,3.3,1.37s2.39-.46,3.3-1.37l19.15-19.15,19.15,19.15c.91.91,2.11,1.37,3.3,1.37s2.39-.46,3.3-1.37c1.82-1.82,1.82-4.78,0-6.6l-19.15-19.15Z" fill="#bfd7ea"/><circle cx="511.11" cy="83.81" r="65" fill="#2daa37"/><path d="M498.85,112.94c-1.52,0-3.03-.58-4.19-1.73l-23.13-23.13c-2.31-2.31-2.31-6.06,0-8.38,2.31-2.31,6.06-2.31,8.38,0l18.94,18.94,41.34-41.34c2.31-2.31,6.06-2.31,8.38,0,2.31,2.31,2.31,6.06,0,8.38l-45.53,45.53c-1.16,1.16-2.67,1.73-4.19,1.73Z" fill="#fff"/><circle cx="1111.91" cy="83.81" r="65" fill="#e62828"/><path d="M1118.51,83.81l19.15-19.15c1.82-1.82,1.82-4.78,0-6.6-1.82-1.82-4.78-1.82-6.6,0l-19.15,19.15-19.15-19.15c-1.82-1.82-4.78-1.82-6.6,0-1.82,1.82-1.82,4.78,0,6.6l19.15,19.15-19.15,19.15c-1.82,1.82-1.82,4.78,0,6.6.91.91,2.11,1.37,3.3,1.37s2.39-.46,3.3-1.37l19.15-19.15,19.15,19.15c.91.91,2.11,1.37,3.3,1.37s2.39-.46,3.3-1.37c1.82-1.82,1.82-4.78,0-6.6l-19.15-19.15Z" fill="#fff"/></g><g id="Zeichenfläche_-_1"><g id="Standing_Puppet"><path id="neck" d="M903.53,139.54c-10.11-8.9-21.24-4.54-25.94-1.21-6.29,4.47-13.3,15.74-16.09,22.1-2.52,5.74-3.3,15.81,7.49,23.58,10.8,7.77,22.82,2.32,27.04-2.61,13.32-15.55,23.4-27.87,7.5-41.87ZM881.44,185.36c-1.57-.69-2.29-2.52-1.61-4.09s2.52-2.29,4.09-1.61,2.29,2.52,1.61,4.09-2.52,2.29-4.09,1.61ZM894.42,155.53c-1.57-.69-2.29-2.52-1.61-4.09s2.52-2.29,4.09-1.61,2.29,2.52,1.61,4.09-2.52,2.29-4.09,1.61Z" fill="#bfd7ea" stroke="#0b3954" stroke-miterlimit="10"/><path id="head" d="M931.42,125.36s5.42-42.66-44.41-35.65c-49.41,6.95-42.21,84.12,44.17,78.73,7.45-.46,6.84-2.38,4.32-22.53-.24-1.94,4.58-3.59,5-5.38,1.01-4.3-9.08-15.17-9.08-15.17ZM895.88,155.52c-1.71.18-3.24-1.06-3.41-2.77s1.06-3.24,2.77-3.41,3.24,1.06,3.41,2.77-1.06,3.24-2.77,3.41ZM923.94,128.22l-7.99-2.02,7.4-3.62.59,5.63Z" fill="#bfd7ea" stroke="#0b3954" stroke-miterlimit="10"/><path id="upper_body" d="M875.37,168.34c-37.83,1.74-30.59,71.41-22.81,100.66,8.93,33.58,13.65,41.88,14.1,85.52.38,36.45-3.6,32.47.28,44.79,2.67,8.47,17.18,12.92,36,10.88,18.82-2.04,42.94-10.71,40.57-64.99-3.36-76.97-18.23-179.15-68.14-176.86ZM879.59,182.96c-.21-1.7,1-3.25,2.7-3.46,1.7-.21,3.25,1,3.46,2.7s-1,3.25-2.7,3.46-3.25-1-3.46-2.7ZM909.32,385.15c-1.7.21-3.25-1-3.46-2.7s1-3.25,2.7-3.46,3.25,1,3.46,2.7c.21,1.7-1,3.25-2.7,3.46Z" fill="#bfd7ea" stroke="#0b3954" stroke-miterlimit="10"/><path id="thigh" d="M913.97,354.1c-28.77-3.72-37.06,18.37-37.77,23.85-5.04,38.96-11.14,116.02-12.91,154.82-.07,1.59-.47,16.55,18.33,19.82,17.76,3.09,23.04-11.95,23.76-15.73,3.86-20.19,20.11-71.6,22.63-82.95,3.89-17.44,33.83-93.62-14.05-99.81ZM884.04,535.45c-1.7-.22-2.9-1.78-2.68-3.48s1.78-2.9,3.48-2.68,2.9,1.78,2.68,3.48c-.22,1.7-1.78,2.9-3.48,2.68ZM908.48,385.25c-1.7-.22-2.9-1.78-2.68-3.48s1.78-2.9,3.48-2.68c1.7.22,2.9,1.78,2.68,3.48s-1.78,2.9-3.48,2.68Z" fill="#bfd7ea" stroke="#0b3954" stroke-miterlimit="10"/><path id="calves" d="M903.13,528.4c-1.41-5.97-6.82-14.32-20.31-14.78-13.67-.46-20.29,8.44-20.45,17.66-.16,9.23,1.74,18.09.69,24.96-1.05,6.87-4.85,28.72-4.59,44.09.28,16.56,6.08,37.58,7.05,45.19,1.06,8.26,1.52,32.5,2.32,39.11.8,6.61,3.46,12.88,15.92,13.51,12.45.63,14.67-9.38,15.2-12.61.53-3.23,5.58-151.16,4.17-157.14ZM884.43,684.4c-1.72.05-3.15-1.31-3.19-3.02s1.31-3.15,3.02-3.19,3.15,1.31,3.19,3.02-1.31,3.15-3.02,3.19ZM884.47,535.36c-1.72.05-3.15-1.31-3.19-3.02s1.31-3.15,3.02-3.19c1.72-.05,3.15,1.31,3.19,3.02s-1.31,3.15-3.02,3.19Z" fill="#bfd7ea" stroke="#0b3954" stroke-miterlimit="10"/><path id="foot" d="M954.7,706.38c-1.6-8.45-13.4-8.42-24.87-11.71-15.54-4.46-32.53-28.91-45.59-28.91-15.96,0-15.79,19.67-19.69,24.24-1.79,2.1-6.19,12.35-3.73,18.03,3.32,7.67,25.4,4.15,47.66,4.56,24.06.44,47.82,2.29,46.21-6.22ZM884.24,684.52c-1.72,0-3.11-1.39-3.11-3.11s1.39-3.11,3.11-3.11,3.11,1.39,3.11,3.11-1.39,3.11-3.11,3.11Z" fill="#bfd7ea" stroke="#0b3954" stroke-miterlimit="10"/><path id="upper_arm" d="M887.56,193.04c-11.8-.74-21.92,9.02-22.39,16.78-.57,9.24-2.36,102.35-1.43,106.88.92,4.53,3.03,11.7,14.88,12.7,11.56.97,15.3-4.82,16.12-10.48.82-5.65,3.12-22.12,5.02-35.27,5.17-35.78,19.65-88.63-12.2-90.62ZM878.61,317.77c-1.71-.12-3-1.61-2.88-3.32s1.61-3,3.32-2.88,3,1.61,2.88,3.32c-.12,1.71-1.61,3-3.32,2.88ZM885.8,217.53c-1.71-.12-3-1.61-2.88-3.32.12-1.71,1.61-3,3.32-2.88s3,1.61,2.88,3.32-1.61,3-3.32,2.88Z" fill="#bfd7ea" stroke="#0b3954" stroke-miterlimit="10"/><path id="lower_arm" d="M889.24,306.55c-1.94-3.76-5.56-8.11-15.52-5.25-8.76,2.51-10.44,10.97-8.78,16.74.72,2.5,28.07,89.61,29.18,90.47,1.11.86,4.64,5.67,12.61,3.39,7.97-2.28,6.54-8.77,6.36-10.88-.17-2.11-21.92-90.72-23.86-94.47ZM903.68,405.77c-1.65.47-3.37-.48-3.84-2.13s.48-3.37,2.13-3.84,3.37.48,3.84,2.13-.48,3.37-2.13,3.84ZM879.69,317.59c-1.65.47-3.37-.48-3.84-2.13s.48-3.37,2.13-3.84,3.37.48,3.84,2.13c.47,1.65-.48,3.37-2.13,3.84Z" fill="#bfd7ea" stroke="#0b3954" stroke-miterlimit="10"/><path id="hand_default" d="M916.24,439.77l-4.13-41.24s-3.25-5.41-9.98-5.04c-6.86.37-7.55,5.23-8.68,13.15-1.08,7.6-2.46,11.11-1.68,17.9.71,6.21,1.15,28.78,9.18,27.35,2.88-.51.79,21.01,7.59,21.33,6.56.32,5.54-29.61,7.69-33.46ZM899.95,402.88c-.17-1.71,1.08-3.23,2.78-3.4,1.71-.17,3.23,1.08,3.4,2.78.17,1.71-1.08,3.23-2.78,3.4s-3.23-1.08-3.4-2.78Z" fill="#bfd7ea" stroke="#0b3954" stroke-miterlimit="10"/><path id="neck-2" d="M291.04,138.96c-13.26-2.36-20.51,7.15-22.79,12.43-3.06,7.08-3.2,20.35-2.28,27.25.83,6.22,5.39,15.23,18.65,16.27,13.26,1.04,20.71-9.86,21.76-16.27,3.32-20.2,5.53-35.97-15.33-39.68ZM290,184.85c-1.72,0-3.11-1.39-3.11-3.11s1.39-3.11,3.11-3.11,3.11,1.39,3.11,3.11-1.39,3.11-3.11,3.11ZM290,152.32c-1.72,0-3.11-1.39-3.11-3.11s1.39-3.11,3.11-3.11,3.11,1.39,3.11,3.11-1.39,3.11-3.11,3.11Z" fill="#bfd7ea" stroke="#0b3954" stroke-miterlimit="10"/><path id="head-2" d="M328.08,125.83s9.81-41.87-40.48-40.06c-49.87,1.8-50.7,79.29,35.78,82.88,7.45.31,7.05-1.66,6.63-21.96-.04-1.95,4.92-3.1,5.53-4.83,1.45-4.17-7.46-16.02-7.46-16.02ZM289.61,152.14c-1.72,0-3.11-1.39-3.11-3.11s1.39-3.11,3.11-3.11,3.11,1.39,3.11,3.11-1.39,3.11-3.11,3.11ZM320.34,127.9l-7.74-2.83,7.74-2.83v5.66Z" fill="#bfd7ea" stroke="#0b3954" stroke-miterlimit="10"/><path id="upper_body-2" d="M284.58,166.92c-37.76-2.9-39.09,67.14-34.95,97.11,4.76,34.42,8.43,43.24,3.54,86.6-4.08,36.23-7.54,31.78-5.2,44.49,1.61,8.73,15.47,14.92,34.4,15.2s43.93-5.38,48.21-59.54c6.08-76.81,3.81-180.04-46-183.86ZM286.99,181.94c0-1.72,1.39-3.11,3.11-3.11s3.11,1.39,3.11,3.11-1.39,3.11-3.11,3.11-3.11-1.39-3.11-3.11ZM291.77,386.25c-1.72,0-3.11-1.39-3.11-3.11s1.39-3.11,3.11-3.11,3.11,1.39,3.11,3.11-1.39,3.11-3.11,3.11Z" fill="#bfd7ea" stroke="#0b3954" stroke-miterlimit="10"/><path id="thigh-2" d="M293.23,354.55c-29.01,0-34.4,22.97-34.4,28.49,0,39.29,3.83,116.49,7.05,155.2.13,1.58,1.66,16.47,20.72,17.3,18.01.78,21.32-14.8,21.55-18.65,1.24-20.51,10.76-73.59,11.81-85.16,1.62-17.79,21.55-97.18-26.73-97.18ZM286.81,538.24c-1.72,0-3.11-1.39-3.11-3.11s1.39-3.11,3.11-3.11,3.11,1.39,3.11,3.11-1.39,3.11-3.11,3.11ZM291.78,386.15c-1.72,0-3.11-1.39-3.11-3.11s1.39-3.11,3.11-3.11,3.11,1.39,3.11,3.11-1.39,3.11-3.11,3.11Z" fill="#bfd7ea" stroke="#0b3954" stroke-miterlimit="10"/><path id="calves-2" d="M306.96,530.39c-1.24-6.01-6.42-14.5-19.89-15.33-13.66-.84-20.51,7.87-20.93,17.09-.41,9.22,1.24,18.13,0,24.97s-5.64,28.57-5.8,43.94c-.17,16.56,5.04,37.73,5.8,45.36.83,8.29.62,32.53,1.24,39.16.62,6.63,3.11,12.97,15.54,13.95s14.92-8.97,15.54-12.18,9.74-150.95,8.5-156.96ZM282.92,687.35c-1.72,0-3.11-1.39-3.11-3.11s1.39-3.11,3.11-3.11,3.11,1.39,3.11,3.11-1.39,3.11-3.11,3.11ZM287.07,538.37c-1.72,0-3.11-1.39-3.11-3.11s1.39-3.11,3.11-3.11,3.11,1.39,3.11,3.11-1.39,3.11-3.11,3.11Z" fill="#bfd7ea" stroke="#0b3954" stroke-miterlimit="10"/><path id="foot-2" d="M352.71,709.6c-1.6-8.45-13.4-8.42-24.87-11.71-15.54-4.46-32.53-28.91-45.59-28.91-15.96,0-15.79,19.67-19.69,24.24-1.79,2.1-6.19,12.35-3.73,18.03,3.32,7.67,25.4,4.15,47.66,4.56,24.06.44,47.82,2.29,46.21-6.22ZM282.26,687.74c-1.72,0-3.11-1.39-3.11-3.11s1.39-3.11,3.11-3.11,3.11,1.39,3.11,3.11-1.39,3.11-3.11,3.11Z" fill="#bfd7ea" stroke="#0b3954" stroke-miterlimit="10"/><path id="upper_arm-2" d="M290.08,196.02c-11.82.11-21.22,10.57-21.14,18.34.1,9.26,4.97,102.26,6.22,106.71,1.24,4.46,3.86,11.46,15.75,11.6,11.6.14,14.92-5.91,15.33-11.6.41-5.7,1.53-22.28,2.49-35.54,2.59-36.06,13.26-89.81-18.65-89.52ZM290.08,321.07c-1.72,0-3.11-1.39-3.11-3.11s1.39-3.11,3.11-3.11,3.11,1.39,3.11,3.11-1.39,3.11-3.11,3.11ZM290.08,220.58c-1.72,0-3.11-1.39-3.11-3.11s1.39-3.11,3.11-3.11,3.11,1.39,3.11,3.11-1.39,3.11-3.11,3.11Z" fill="#bfd7ea" stroke="#0b3954" stroke-miterlimit="10"/><path id="lower_arm-2" d="M301.25,311.02c-1.41-3.98-4.4-8.79-14.66-7.32-9.02,1.29-11.84,9.44-10.98,15.39.37,2.57,15.59,92.6,16.57,93.6.98,1.01,3.83,6.25,12.03,5.07,8.2-1.18,7.67-7.8,7.79-9.91.12-2.11-9.35-92.86-10.75-96.84ZM302.03,411.29c-1.7.24-3.27-.94-3.52-2.64s.94-3.27,2.64-3.52,3.27.94,3.52,2.64-.94,3.27-2.64,3.52ZM290.28,320.66c-1.7.24-3.27-.94-3.52-2.64s.94-3.27,2.64-3.52,3.27.94,3.52,2.64-.94,3.27-2.64,3.52Z" fill="#bfd7ea" stroke="#0b3954" stroke-miterlimit="10"/><path id="hand_default-2" d="M316.37,445.1l-5.89-41.02s-3.48-5.26-10.19-4.61c-6.83.67-7.32,5.55-8.11,13.51-.75,7.64-1.98,11.2-.91,17.96.97,6.17,2.38,28.71,10.34,26.93,2.85-.64,1.69,20.95,8.5,20.99,6.57.03,4.27-29.82,6.25-33.76ZM298.51,408.93c-.24-1.7.94-3.27,2.64-3.52s3.27.94,3.52,2.64-.94,3.27-2.64,3.52-3.27-.94-3.52-2.64Z" fill="#bfd7ea" stroke="#0b3954" stroke-miterlimit="10"/></g></g></svg>