<?xml version="1.0" encoding="UTF-8"?><svg xmlns="http://www.w3.org/2000/svg" viewBox="0 0 1200 800"><g id="Zeichenfläche_-_2"><g id="Sitting_Puppet"><polygon points="734.78 72.65 721.74 77.36 734.78 82.06 734.78 72.65" fill="none"/><path d="M760.4,105.25c-1.01,2.88-9.38,4.79-9.32,8.04.7,33.75,1.39,37.02-11.18,36.51-9.52-.39-18.4-1.32-26.69-2.68-.59,5.26-1.46,10.81-2.42,16.6,34.95,34.68,45.02,116.03,44.63,198.43,46.61-10.74,112.96-25.26,115.31-25.41,2.65-.16,9.41-1.39,14.13,3.49l54.8,12.08c5.07,5.4,53.55,19.43,49.63,29.63-4.06,10.56-37.46-3.97-38.13.84-.47,3.39-3.15,5.21-7.06,6.01h178.53v-243.13c0-24.85-20.15-45-45-45h-317.38c.46,1.8.57,3.4.15,4.61Z" fill="none" stroke="#0b3954" stroke-miterlimit="10"/><path d="M622.64,360.46v74.77c3.2-33.93,2.55-53.74,0-74.77Z" fill="none" stroke="#0b3954" stroke-miterlimit="10"/><path d="M641.57,157.55c-.51-11.82.5-27.45,4.56-36.71.32-.74.71-1.53,1.15-2.35-2.86-2.55-5.46-5.2-7.82-7.92-10.25,8.25-16.82,20.89-16.82,35.08v43.92c4.47-13.06,10.63-24.28,18.93-32.02Z" fill="none" stroke="#0b3954" stroke-miterlimit="10"/><path d="M622.64,539.54v7.25h16.48c-6.54-1.88-12.11-4.33-16.48-7.25Z" fill="none" stroke="#0b3954" stroke-miterlimit="10"/><path d="M691.14,506.12c.08-1.06-.18-2.08-.68-2.94,0,0,0,0,0-.01-.13-.22-.29-.43-.46-.63-.07-.09-.14-.18-.22-.26-.1-.11-.21-.2-.32-.3-.17-.15-.34-.3-.52-.43-.03-.02-.07-.04-.1-.06-.82-.53-1.81-.85-2.86-.85-2.89,0-5.24,2.31-5.24,5.17,0,1.04.32,2.01.85,2.82.04.06.09.12.13.18.13.18.27.34.42.5.13.13.26.26.4.37.08.07.17.14.25.21.24.17.48.34.75.47,0,0,0,0,0,0,.61.3,1.28.5,2,.55,2.89.2,5.39-1.94,5.6-4.79Z" fill="none" stroke="#0b3954" stroke-miterlimit="10"/><path d="M872.07,358.73c2.83.62,5.61-1.13,6.23-3.92.15-.66.15-1.32.04-1.95,0-.05-.01-.1-.02-.15-.03-.15-.09-.3-.13-.45-.84-2.58-3.57-4.09-6.27-3.39-2.44.64-4.03,2.87-3.92,5.26,0,.03,0,.06,0,.08.01.19.05.38.09.57.44,1.9,1.93,3.49,3.98,3.94Z" fill="none" stroke="#0b3954" stroke-miterlimit="10"/><path d="M945.44,534.71c.51-.79.82-1.71.82-2.71.02-2.85-2.3-5.18-5.2-5.21-1.41-.01-2.69.54-3.64,1.42-.07.07-.14.14-.2.21-.13.14-.25.28-.37.43-.14.19-.27.38-.38.59-.03.05-.05.09-.08.14-.3.59-.49,1.24-.54,1.93-.2,2.85,1.97,5.32,4.86,5.52,1.44.1,2.78-.38,3.79-1.24,0,0,0,0,.01-.01.18-.15.33-.33.48-.5.09-.11.2-.21.28-.33.06-.08.1-.16.15-.24Z" fill="none" stroke="#0b3954" stroke-miterlimit="10"/><path d="M688.05,117.22c0-2.85-2.35-5.17-5.24-5.17-.33,0-.66.04-.98.1-2.35.51-4.11,2.57-4.11,5.04,0,2.85,2.35,5.17,5.24,5.17.33,0,.66-.04.98-.1,2.35-.51,4.11-2.57,4.11-5.04Z" fill="none" stroke="#0b3954" stroke-miterlimit="10"/><path d="M688.05,171.29c0-2.13-1.31-3.96-3.18-4.75-.54-.19-1.11-.31-1.72-.31-2.89,0-5.24,2.31-5.24,5.17,0,2.13,1.31,3.96,3.18,4.75.54.19,1.11.31,1.72.31,2.89,0,5.24-2.31,5.24-5.17Z" fill="none" stroke="#0b3954" stroke-miterlimit="10"/><path d="M622.64,584.95v70.7c0,24.85,20.15,45,45,45h47.83v-109.18c-24.16-.84-63.21-3.95-92.83-6.52Z" fill="none" stroke="#0b3954" stroke-miterlimit="10"/><path d="M827.82,407.48v-16.17c0-1.4,1.13-2.53,2.53-2.53h100.4c-10.81-1.3-22.91-4.73-28.18-5.82-11.17-2.3-16.1-6.25-27.45-11.83-21.49,6.83-84.91,25.25-120.84,35.6-.71,15.46-1.69,30.67-2.87,45.29-.11,1.33-.22,2.64-.34,3.94,23.46,4.01,44.01,9.58,53.72,11.15,19.34,3.11,107.45,25.12,141.8,29.6,6.44.84,32.25,8.15,28.79,37.92-.23,1.95-.54,3.79-.92,5.51-1.26,31.56-5.9,102.92-9.91,160.51h113.1c24.85,0,45-20.15,45-45v-245.64h-292.29c-1.4,0-2.53-1.13-2.53-2.53Z" fill="none" stroke="#0b3954" stroke-miterlimit="10"/><path d="M895.08,640.97c.48-25.54,8.18-61.61,10.37-72.96.06-.32.1-.64.16-.97-9.49-.04-19.53-.12-29.94-.25v9.24c0,2.89-2.37,5.23-5.3,5.23,0,0-90.33,8.7-133.36,10.2v109.18h164.8c-2.88-16.5-7.1-40.05-6.73-59.68Z" fill="none" stroke="#0b3954" stroke-miterlimit="10"/><path d="M944.11,388.78c-3.65.75-8.37.6-13.36,0h-100.4c-1.4,0-2.53,1.13-2.53,2.53v16.17c0,1.4,1.13,2.53,2.53,2.53h292.29v-21.23h-178.53Z" fill="#cccecc" stroke="#8d8e8d" stroke-miterlimit="10"/><path d="M726.23,591.68c-3.09,0-6.73-.08-10.77-.22v109.18h21.53v-109.18c-4.04.14-7.67.22-10.77.22Z" fill="#cccecc" stroke="#8d8e8d" stroke-miterlimit="10"/><path d="M715.47,570.55c0-1.4,1.13-2.53,2.53-2.53h16.47c1.4,0,2.53,1.13,2.53,2.53v20.91c43.03-1.49,133.36-10.2,133.36-10.2,2.93,0,5.3-2.34,5.3-5.23v-9.24c-65.86-.77-146.29-3.11-193.68-6.43-4.21-.29-14.34-2.85-23.83-10.06-6.97-.69-13.36-1.89-19.04-3.52h-16.48v38.15c29.62,2.57,68.67,5.68,92.83,6.52v-20.91Z" fill="#cccecc" stroke="#8d8e8d" stroke-miterlimit="10"/><path d="M734.47,568.02h-16.47c-1.4,0-2.53,1.13-2.53,2.53v20.91c4.04.14,7.67.22,10.77.22s6.73-.08,10.77-.22v-20.91c0-1.4-1.13-2.53-2.53-2.53Z" fill="#cccecc" stroke="#8d8e8d" stroke-miterlimit="10"/><path d="M647.28,118.49c-.44.82-.83,1.61-1.15,2.35-4.05,9.26-5.07,24.89-4.56,36.71,8.41-7.84,19.01-12.12,32.29-11.12,14.63,1.11,26.83,7.24,36.95,17.28.95-5.79,1.83-11.34,2.42-16.6-29.38-4.85-51.1-15.42-65.94-28.62Z" fill="#bfd7ea" stroke="#0b3954" stroke-miterlimit="10"/><path d="M684.87,166.55c1.87.79,3.18,2.62,3.18,4.75,0,2.85-2.35,5.17-5.24,5.17-.61,0-1.18-.12-1.72-.31.63.27,1.33.42,2.06.42,2.89,0,5.24-2.31,5.24-5.17,0-2.26-1.48-4.15-3.52-4.86Z" fill="#bfd7ea" stroke="#0b3954" stroke-miterlimit="10"/><path d="M682.97,112.03c-.39,0-.77.05-1.13.13.32-.06.64-.1.98-.1,2.89,0,5.24,2.31,5.24,5.17,0,2.47-1.76,4.52-4.11,5.04,2.43-.45,4.26-2.55,4.26-5.07,0-2.85-2.35-5.17-5.24-5.17Z" fill="#bfd7ea" stroke="#0b3954" stroke-miterlimit="10"/><path d="M713.22,147.11c8.28,1.37,17.16,2.29,26.69,2.68,12.56.51,11.88-2.76,11.18-36.51-.07-3.24,8.3-5.15,9.32-8.04.42-1.21.31-2.8-.15-4.61h-73.29c25.96,5.53,28.9,23,26.26,46.46Z" fill="#bfd7ea" stroke="#0b3954" stroke-miterlimit="10"/><path d="M647.28,118.49c3.46-6.42,10.59-14.88,21.9-17.85h-1.54c-10.67,0-20.46,3.72-28.18,9.92,2.36,2.72,4.96,5.37,7.82,7.92Z" fill="#bfd7ea" stroke="#0b3954" stroke-miterlimit="10"/><path d="M677.73,117.19c0-2.47,1.76-4.52,4.11-5.04-2.43.45-4.26,2.55-4.26,5.07,0,2.85,2.35,5.17,5.24,5.17.39,0,.77-.05,1.13-.13-.32.06-.64.1-.98.1-2.89,0-5.24-2.31-5.24-5.17Z" fill="#bfd7ea" stroke="#0b3954" stroke-miterlimit="10"/><path d="M686.96,100.65h-17.78c-11.31,2.96-18.44,11.43-21.9,17.85,14.84,13.2,36.56,23.76,65.94,28.62,2.64-23.46-.3-40.94-26.26-46.46ZM683.94,122.26c-.37.08-.74.13-1.13.13-2.89,0-5.24-2.31-5.24-5.17,0-2.52,1.84-4.62,4.26-5.07.37-.08.74-.13,1.13-.13,2.89,0,5.24,2.31,5.24,5.17,0,2.52-1.84,4.62-4.26,5.07Z" fill="#bfd7ea" stroke="#0b3954" stroke-miterlimit="10"/><path d="M682.13,509.3c-.15-.16-.29-.32-.42-.5.13.17.27.34.42.5Z" fill="#bfd7ea" stroke="#0b3954" stroke-miterlimit="10"/><path d="M688.93,501.55c.19.13.36.28.52.43-.17-.15-.34-.3-.52-.43Z" fill="#bfd7ea" stroke="#0b3954" stroke-miterlimit="10"/><path d="M682.78,509.89c-.09-.07-.17-.14-.25-.21.08.07.17.14.25.21Z" fill="#bfd7ea" stroke="#0b3954" stroke-miterlimit="10"/><path d="M683.54,510.36s0,0,0,0c0,0,0,0,0,0Z" fill="#bfd7ea" stroke="#0b3954" stroke-miterlimit="10"/><path d="M677.91,171.4c0-2.85,2.35-5.17,5.24-5.17.61,0,1.18.12,1.72.31-.63-.27-1.33-.42-2.06-.42-2.89,0-5.24,2.31-5.24,5.17,0,2.26,1.48,4.15,3.52,4.86-1.87-.79-3.18-2.62-3.18-4.75Z" fill="#bfd7ea" stroke="#0b3954" stroke-miterlimit="10"/><path d="M724.95,395.8c2.8-.73,4.49-3.56,3.77-6.32-.52-1.99-2.16-3.39-4.08-3.74-.1-.02-.2-.05-.31-.06-.08,0-.15,0-.23,0-.63-.03-1.27.03-1.9.23-2.76.88-4.29,3.8-3.42,6.51.53,1.67,1.86,2.88,3.44,3.35.08.02.17.04.25.06.19.05.37.08.56.1.62.07,1.27.04,1.92-.13Z" fill="#bfd7ea" stroke="#0b3954" stroke-miterlimit="10"/><path d="M654.01,546.79c-9.65-9.11-17.49-23.77-15.83-46.8,3.88-53.88,64.57-52.29,112.89-44.03.12-1.3.24-2.61.34-3.94,1.17-14.62,2.16-29.83,2.87-45.29-5.77,1.66-10.81,3.11-14.87,4.27-2,.99-4.27,1.89-6.86,2.69-19.16,5.86-26.91-3.89-31.15-10.3-4.25-6.42-59.07-151.17-63.9-165.78-4.06-12.26,5.75-33.64,24.68-39.87,51.1-16.82,61.13,73.76,75.18,132.18,2.67,11.12,5.73,23.67,8.36,34.47,3.12-.73,6.37-1.48,9.73-2.25.39-82.39-9.67-163.75-44.63-198.43-.13.8-.27,1.61-.4,2.42-1.77,10.64-14.32,28.76-36.68,27.03-22.36-1.72-30.04-16.7-31.44-27.03-.33-2.44-.58-5.37-.72-8.58-8.3,7.74-14.46,18.96-18.93,32.02v170.89c2.55,21.03,3.2,40.84,0,74.77v104.32c4.37,2.92,9.94,5.37,16.48,7.25h14.89Z" fill="#bfd7ea" stroke="#0b3954" stroke-miterlimit="10"/><path d="M689.78,502.28c.08.08.14.17.22.26-.07-.09-.14-.18-.22-.26Z" fill="#bfd7ea" stroke="#0b3954" stroke-miterlimit="10"/><path d="M671.43,226.78c-2.76.88-4.29,3.8-3.42,6.51s3.81,4.21,6.56,3.33c2.76-.88,4.29-3.8,3.42-6.51s-3.81-4.21-6.56-3.33Z" fill="#bfd7ea" stroke="#0b3954" stroke-miterlimit="10"/><path d="M685.97,500.64c1.06,0,2.04.31,2.86.85-.74-.49-1.6-.82-2.55-.89-2.89-.2-5.39,1.94-5.6,4.79-.09,1.2.27,2.31.9,3.24-.54-.81-.85-1.78-.85-2.82,0-2.85,2.35-5.17,5.24-5.17Z" fill="#bfd7ea" stroke="#0b3954" stroke-miterlimit="10"/><path d="M690.45,503.17s0,0,0,.01c0,0,0,0,0-.01Z" fill="#bfd7ea" stroke="#0b3954" stroke-miterlimit="10"/><path d="M639.11,546.79c5.68,1.63,12.07,2.83,19.04,3.52-1.4-1.07-2.79-2.24-4.15-3.52h-14.89Z" fill="#bfd7ea" stroke="#0b3954" stroke-miterlimit="10"/><path d="M673.86,146.43c-13.28-1.01-23.88,3.28-32.29,11.12.14,3.2.39,6.13.72,8.58,1.4,10.33,9.08,25.31,31.44,27.03,22.36,1.72,34.91-16.4,36.68-27.03.13-.81.27-1.61.4-2.42-10.12-10.04-22.31-16.17-36.95-17.28ZM683.15,176.57c-.73,0-1.43-.15-2.06-.42-2.04-.7-3.52-2.6-3.52-4.86,0-2.85,2.35-5.17,5.24-5.17.73,0,1.43.15,2.06.42,2.04.7,3.52,2.6,3.52,4.86,0,2.85-2.35,5.17-5.24,5.17Z" fill="#bfd7ea" stroke="#0b3954" stroke-miterlimit="10"/><path d="M945.44,534.71c-.05.08-.1.16-.15.24.06-.08.1-.16.15-.24Z" fill="#bfd7ea" stroke="#0b3954" stroke-miterlimit="10"/><path d="M937.22,528.42c.07-.07.13-.14.2-.21-.07.07-.14.14-.2.21Z" fill="#bfd7ea" stroke="#0b3954" stroke-miterlimit="10"/><path d="M935.85,531.52c.05-.69.24-1.34.54-1.93-.37.7-.6,1.48-.61,2.32-.02,2.85,2.3,5.18,5.2,5.21,1.36.01,2.58-.5,3.52-1.33-1.01.86-2.36,1.34-3.79,1.24-2.89-.2-5.06-2.67-4.86-5.52Z" fill="#bfd7ea" stroke="#0b3954" stroke-miterlimit="10"/><path d="M945,535.28c-.16.17-.31.35-.48.5.17-.16.33-.33.48-.5Z" fill="#bfd7ea" stroke="#0b3954" stroke-miterlimit="10"/><path d="M700.45,546.79h169.91c2.93,0,5.3,2.34,5.3,5.23v14.78c10.41.12,20.45.2,29.94.25,1.87-11.22-.62-25.64.18-40.53.82-15.32,12.5-29.71,35.51-28.13,22.69,1.56,31.31,15.74,33.33,25.75.27,1.36.19,7.11-.17,16.01.38-1.72.69-3.56.92-5.51,3.47-29.77-22.35-37.08-28.79-37.92-34.35-4.47-122.46-26.49-141.8-29.6-9.71-1.56-30.26-7.14-53.72-11.15-5.65,59.99-27.35,82.7-50.61,90.83Z" fill="#bfd7ea" stroke="#0b3954" stroke-miterlimit="10"/><path d="M936.47,529.45c.11-.21.24-.4.38-.59-.14.19-.27.39-.38.59Z" fill="#bfd7ea" stroke="#0b3954" stroke-miterlimit="10"/><path d="M689.45,501.98c.11.1.22.2.32.3-.1-.11-.21-.21-.32-.3Z" fill="#bfd7ea" stroke="#0b3954" stroke-miterlimit="10"/><path d="M683.53,510.35c-.26-.13-.51-.3-.75-.47.23.18.48.33.75.47Z" fill="#bfd7ea" stroke="#0b3954" stroke-miterlimit="10"/><path d="M682.53,509.68c-.14-.12-.27-.24-.4-.37.13.13.26.25.4.37Z" fill="#bfd7ea" stroke="#0b3954" stroke-miterlimit="10"/><path d="M689.99,502.54c.16.2.32.41.46.63-.14-.22-.29-.43-.46-.63Z" fill="#bfd7ea" stroke="#0b3954" stroke-miterlimit="10"/><path d="M681.71,508.8c-.04-.06-.09-.12-.13-.18.04.06.09.12.13.18Z" fill="#bfd7ea" stroke="#0b3954" stroke-miterlimit="10"/><path d="M688.83,501.49s.07.04.1.06c-.03-.02-.07-.04-.1-.06Z" fill="#bfd7ea" stroke="#0b3954" stroke-miterlimit="10"/><path d="M691.14,506.12c-.2,2.85-2.71,4.99-5.6,4.79-.72-.05-1.4-.24-2-.55.73.38,1.55.61,2.43.61,2.89,0,5.24-2.31,5.24-5.17,0-.96-.28-1.85-.75-2.63.5.86.76,1.87.68,2.94Z" fill="#bfd7ea" stroke="#0b3954" stroke-miterlimit="10"/><path d="M870.36,546.79h-169.91c-10.22,3.57-20.73,4.33-30.32,4.19-4.15-.06-8.14-.29-11.98-.67,9.48,7.21,19.61,9.77,23.83,10.06,47.39,3.31,127.83,5.65,193.68,6.43v-14.78c0-2.89-2.37-5.23-5.3-5.23Z" fill="#bfd7ea" stroke="#0b3954" stroke-miterlimit="10"/><path d="M638.17,500c-1.66,23.03,6.19,37.69,15.83,46.8h46.45c23.26-8.12,44.96-30.83,50.61-90.83-48.32-8.26-109.01-9.85-112.89,44.03ZM685.97,510.97c-.88,0-1.7-.23-2.43-.61,0,0,0,0,0,0-.26-.14-.51-.29-.75-.47-.09-.07-.17-.14-.25-.21-.14-.12-.27-.24-.4-.37-.15-.16-.29-.32-.42-.5-.04-.06-.09-.12-.13-.18-.63-.92-.98-2.04-.9-3.24.2-2.85,2.71-4.99,5.6-4.79.95.07,1.81.4,2.55.89.03.02.07.04.1.06.19.13.36.27.52.43.11.1.22.2.32.3.08.08.15.17.22.26.17.2.32.41.46.63,0,0,0,0,0,.01.47.77.75,1.66.75,2.63,0,2.85-2.35,5.17-5.24,5.17Z" fill="#bfd7ea" stroke="#0b3954" stroke-miterlimit="10"/><path d="M700.45,546.79h-46.45c1.35,1.28,2.74,2.45,4.15,3.52,3.83.38,7.83.61,11.98.67,9.59.14,20.11-.62,30.32-4.19Z" fill="#bfd7ea" stroke="#0b3954" stroke-miterlimit="10"/><path d="M943.81,566.95c-11.08.13-24.03.16-38.2.1-.05.32-.1.65-.16.97-2.19,11.35-9.89,47.41-10.37,72.96-.37,19.63,3.85,43.17,6.73,59.68h62.74c4.01-57.59,8.66-128.95,9.91-160.51-5.79,26.09-28.14,26.78-30.65,26.81Z" fill="#bfd7ea" stroke="#0b3954" stroke-miterlimit="10"/><path d="M944.51,535.78s0,0-.01.01c0,0,0,0,.01-.01Z" fill="#bfd7ea" stroke="#0b3954" stroke-miterlimit="10"/><path d="M945,535.28c.1-.11.19-.21.28-.33-.09.12-.19.22-.28.33Z" fill="#bfd7ea" stroke="#0b3954" stroke-miterlimit="10"/><path d="M936.85,528.86c.12-.15.24-.3.37-.43-.13.14-.26.28-.37.43Z" fill="#bfd7ea" stroke="#0b3954" stroke-miterlimit="10"/><path d="M936.39,529.59s.05-.09.08-.14c-.03.05-.06.09-.08.14Z" fill="#bfd7ea" stroke="#0b3954" stroke-miterlimit="10"/><path d="M946.26,532c0,1-.32,1.93-.82,2.71.48-.72.8-1.54.87-2.46.2-2.85-1.97-5.32-4.86-5.52-1.56-.11-2.99.48-4.03,1.48.95-.89,2.23-1.43,3.64-1.42,2.89.02,5.22,2.35,5.2,5.21Z" fill="#bfd7ea" stroke="#0b3954" stroke-miterlimit="10"/><path d="M974.62,524.13c-2.02-10-10.63-24.19-33.33-25.75-23.01-1.58-34.69,12.81-35.51,28.13-.8,14.89,1.69,29.31-.18,40.53,14.17.06,27.12.03,38.2-.1,2.51-.03,24.86-.72,30.65-26.81.35-8.9.44-14.65.17-16.01ZM944.51,535.78s0,0-.01.01c-.94.83-2.17,1.34-3.52,1.33-2.89-.02-5.22-2.35-5.2-5.21,0-.84.24-1.62.61-2.32.02-.05.05-.09.08-.14.12-.21.24-.4.38-.59.11-.15.24-.29.37-.43.07-.07.13-.14.2-.21,1.03-1,2.47-1.59,4.03-1.48,2.89.2,5.06,2.67,4.86,5.52-.07.92-.39,1.75-.87,2.46-.05.08-.1.16-.15.24-.09.12-.18.22-.28.33-.15.18-.31.35-.48.5Z" fill="#bfd7ea" stroke="#0b3954" stroke-miterlimit="10"/><path d="M723.04,395.93c-.19-.03-.38-.06-.56-.1.19.04.37.08.56.1Z" fill="#bfd7ea" stroke="#0b3954" stroke-miterlimit="10"/><path d="M718.78,392.42c-.87-2.72.66-5.63,3.42-6.51.63-.2,1.27-.27,1.9-.23-.58-.05-1.17-.02-1.76.14-2.8.73-4.49,3.56-3.77,6.32.48,1.84,1.91,3.16,3.64,3.64-1.58-.48-2.9-1.68-3.44-3.35Z" fill="#bfd7ea" stroke="#0b3954" stroke-miterlimit="10"/><path d="M701.02,398.85c-4.35-16.66,3.15-22.53,9.56-25.63,1.87-.9,15.99-4.37,35.12-8.83-2.63-10.8-5.68-23.35-8.36-34.47-14.05-58.42-24.07-149-75.18-132.18-18.93,6.23-28.74,27.6-24.68,39.87,4.83,14.61,59.65,159.37,63.9,165.78,4.25,6.42,11.99,16.16,31.15,10.3,2.6-.79,4.87-1.7,6.86-2.69-6.1,1.75-9.97,2.85-10.6,3.01-9.8,2.57-23.96-.51-27.78-15.17ZM674.57,236.62c-2.76.88-5.69-.61-6.56-3.33s.66-5.63,3.42-6.51c2.76-.88,5.69.61,6.56,3.33s-.66,5.63-3.42,6.51Z" fill="#bfd7ea" stroke="#0b3954" stroke-miterlimit="10"/><path d="M724.34,385.68c.1.01.2.04.31.06-.1-.02-.2-.04-.31-.06Z" fill="#bfd7ea" stroke="#0b3954" stroke-miterlimit="10"/><path d="M871.92,348.88c2.7-.7,5.43.81,6.27,3.39-.52-1.76-1.95-3.2-3.89-3.63-2.83-.62-5.61,1.13-6.23,3.92-.12.53-.12,1.06-.07,1.58-.11-2.39,1.48-4.62,3.92-5.26Z" fill="#bfd7ea" stroke="#0b3954" stroke-miterlimit="10"/><path d="M878.32,352.72c.01.05.01.1.02.15,0-.05-.01-.1-.02-.15Z" fill="#bfd7ea" stroke="#0b3954" stroke-miterlimit="10"/><path d="M868.09,354.8c-.03-.19-.08-.38-.09-.57.02.19.05.38.09.57Z" fill="#bfd7ea" stroke="#0b3954" stroke-miterlimit="10"/><path d="M858.17,350.38c2.91-10.81,13.27-13.12,13.27-13.12l13.43,2.96c-4.72-4.88-11.49-3.65-14.13-3.49-2.35.14-68.7,14.67-115.31,25.41-.07,14.92-.48,29.88-1.16,44.6,35.93-10.35,99.35-28.77,120.84-35.6-.13-.06-.24-.12-.37-.18-12.12-5.92-19.53-9.55-16.57-20.58Z" fill="#bfd7ea" stroke="#0b3954" stroke-miterlimit="10"/><path d="M722.47,395.83c-.08-.02-.17-.04-.25-.06.08.02.17.04.25.06Z" fill="#bfd7ea" stroke="#0b3954" stroke-miterlimit="10"/><path d="M724.11,385.67c.08,0,.15,0,.23,0-.08,0-.15,0-.23,0Z" fill="#bfd7ea" stroke="#0b3954" stroke-miterlimit="10"/><path d="M745.7,364.39c2.45,10.07,4.54,18.62,5.6,23.07,1.91,7.95.48,17.42-11.9,23.54,4.06-1.16,9.1-2.61,14.87-4.27.67-14.72,1.09-29.67,1.16-44.6-3.36.77-6.61,1.53-9.73,2.25Z" fill="#bfd7ea" stroke="#0b3954" stroke-miterlimit="10"/><path d="M724.64,385.74c1.92.36,3.56,1.75,4.08,3.74.72,2.76-.97,5.59-3.77,6.32-.65.17-1.29.2-1.92.13.75.1,1.54.06,2.31-.19,2.76-.88,4.29-3.8,3.42-6.51-.61-1.91-2.25-3.2-4.13-3.49Z" fill="#bfd7ea" stroke="#0b3954" stroke-miterlimit="10"/><path d="M751.3,387.46c-1.07-4.45-3.15-13.01-5.6-23.07-19.13,4.46-33.25,7.92-35.12,8.83-6.41,3.1-13.91,8.97-9.56,25.63,3.82,14.66,17.98,17.74,27.78,15.17.63-.17,4.51-1.27,10.6-3.01,12.38-6.13,13.81-15.59,11.9-23.54ZM725.35,395.75c-.77.25-1.56.29-2.31.19-.19-.02-.38-.06-.56-.1-.08-.02-.17-.04-.25-.06-1.73-.48-3.16-1.8-3.64-3.64-.72-2.76.97-5.59,3.77-6.32.59-.15,1.18-.18,1.76-.14.08,0,.15,0,.23,0,.1.01.2.04.31.06,1.88.3,3.52,1.58,4.13,3.49.87,2.72-.66,5.63-3.42,6.51Z" fill="#bfd7ea" stroke="#0b3954" stroke-miterlimit="10"/><path d="M878.3,354.82c-.61,2.79-3.4,4.54-6.23,3.92-2.05-.45-3.55-2.04-3.98-3.94.02.14.03.27.06.41.72,2.76,3.57,4.41,6.37,3.67,2.69-.7,4.33-3.35,3.81-6.01.11.63.11,1.29-.04,1.95Z" fill="#bfd7ea" stroke="#0b3954" stroke-miterlimit="10"/><path d="M951.16,382.77c.67-4.81,34.07,9.73,38.13-.84,3.92-10.2-44.56-24.23-49.63-29.63l-54.8-12.08c1.62,1.67,3,4.06,3.89,7.47,3.48,13.33-4.78,19.05-6.29,20.86-.2.24-2.87,1.16-7.36,2.59,11.35,5.58,16.28,9.53,27.45,11.83,5.27,1.09,17.37,4.51,28.18,5.82h13.36c3.9-.8,6.58-2.62,7.06-6.01Z" fill="#bfd7ea" stroke="#0b3954" stroke-miterlimit="10"/><path d="M878.29,352.56c-.03-.1-.07-.19-.11-.29.04.15.1.29.13.45-.01-.05-.01-.11-.02-.16Z" fill="#bfd7ea" stroke="#0b3954" stroke-miterlimit="10"/><path d="M868,354.23s0-.06,0-.08c0,.03,0,.06,0,.08Z" fill="#bfd7ea" stroke="#0b3954" stroke-miterlimit="10"/><path d="M944.11,388.78h-13.36c4.99.6,9.72.75,13.36,0Z" fill="#bfd7ea" stroke="#0b3954" stroke-miterlimit="10"/><path d="M888.76,347.69c-.89-3.4-2.27-5.79-3.89-7.47l-13.43-2.96s-10.36,2.31-13.27,13.12c-2.97,11.02,4.45,14.66,16.57,20.58.13.06.24.12.37.18,4.49-1.43,7.16-2.35,7.36-2.59,1.51-1.82,9.76-7.53,6.29-20.86ZM874.53,358.88c-2.8.73-5.65-.91-6.37-3.67-.04-.14-.04-.27-.06-.41-.04-.19-.07-.38-.09-.57,0-.03,0-.06,0-.08-.05-.52-.05-1.05.07-1.58.61-2.79,3.4-4.54,6.23-3.92,1.94.43,3.37,1.87,3.89,3.63.03.1.08.19.11.29.01.05.01.11.02.16.01.05.01.1.02.15.52,2.66-1.12,5.31-3.81,6.01Z" fill="#bfd7ea" stroke="#0b3954" stroke-miterlimit="10"/><path d="M134.76,109.07c.4,0,.78-.03,1.13-.09,5.5-1.15,5.07-10.24-1.29-10.15-.4,0-.78.03-1.13.09-5.5,1.15-5.07,10.24,1.29,10.15Z" fill="none"/><path d="M287.93,393.21c4.43.06,5.98-4.33,4.66-7.39-2.36-3.65-9.59-2.87-9.77,2.47.09,2.52,1.79,4.97,5.11,4.92Z" fill="none" stroke="#0b3954" stroke-miterlimit="10"/><path d="M93.47,146.59c-.56-9.22-.56-19.43,1.3-28.78-14.29,7.36-24.04,22.01-24.04,38.89v23.95c4.62-13.9,11.86-25.57,22.73-34.06Z" fill="none" stroke="#0b3954" stroke-miterlimit="10"/><path d="M191.93,136.36c-9.56-.39-18.47-1.31-26.79-2.67-.59,5.23-1.47,10.75-2.43,16.51,37.88,37.23,46.64,128.56,44.52,216.89,40.52,1.85,81.21,4,82.98,4.37,1.94.13,3.65.49,5.18,1.02h57.43c6.14,4.16,56.7,7.41,55.06,18.16-1.7,11.13-37.58,4.16-37.2,8.98.22,2.82-1.28,4.91-3.89,6.46,55.58-.39,130.81-.17,203.96.17v-249.55c0-24.28-20.15-43.96-45-43.96H203.41c.36,21.71-.69,24.05-11.48,23.61Z" fill="none" stroke="#0b3954" stroke-miterlimit="10"/><path d="M397,512.31c-1.9-1.2-4.65-1.2-6.47.12-.03.03-.06.05-.09.07-.02.02-.05.04-.07.06-1.8,1.63-2.13,4.56-.96,6.65,1.72,2.53,5.87,2.94,8.16.95,2.02-2.14,1.84-6.05-.56-7.86Z" fill="none" stroke="#0b3954" stroke-miterlimit="10"/><path d="M70.74,323.34v32.81c1.09,8.58,1.8,16.42,1.81,23.07.01,7.22-.71,15.98-1.81,25.65v45.52c.56-4.12,1.13-8.65,1.7-13.65,7.46-29.38,3.14-70.66-1.7-113.4Z" fill="none" stroke="#0b3954" stroke-miterlimit="10"/><path d="M141.63,486.94c-1.68-1.64-4.58-1.97-6.67-.88-2.66,1.63-3.01,5.64-1.07,7.92,2.19,2.04,6.31,1.96,8.15-.51,1.26-1.95,1.12-4.77-.41-6.53Z" fill="none" stroke="#0b3954" stroke-miterlimit="10"/><path d="M129.68,157.85c-.05,3.53,2.93,5.19,5.73,4.98,4.84-.57,5.6-6.93,2.29-9.32-3.13-1.64-8.08-.2-8.01,4.34Z" fill="none" stroke="#0b3954" stroke-miterlimit="10"/><path d="M70.74,521.46v9.79h19.99c-8.43-2.4-15.27-5.74-19.99-9.79Z" fill="none" stroke="#0b3954" stroke-miterlimit="10"/><path d="M280.19,425.33v-16.18c-.08-.89,8.23-1.56,22.84-2.05-2.67-.74-5.6-1.56-9.03-2.4-.28.13-.57.26-.86.37-1.04.72-45.62,1.62-87.6,2.29-.59,10.07-1.29,19.97-2.07,29.62-.08.96-.17,1.9-.25,2.85,71.41,10.17,157.07,40.92,196.2,41.6,6.46.83,32.38,8.11,28.9,37.72-.23,1.94-.54,3.77-.92,5.48-1.37,34.11-6.76,114.96-10.98,174.19h109.32c24.85,0,45-19.68,45-43.96v-227.06h-288.03c-1.4,0-2.53-1.11-2.53-2.47Z" fill="none" stroke="#0b3954" stroke-miterlimit="10"/><path d="M358.12,552.36c.06-.31.11-.64.16-.96-9.53-.04-19.61-.12-30.06-.25v9.19c0,2.87-2.38,5.2-5.32,5.2,0,0-91.39,8.73-134.39,10.16.19,29.03,1.38,82.56,1.3,123.12h166.85c-10.4-46.33-11.34-99.26,1.46-146.46Z" fill="none" stroke="#0b3954" stroke-miterlimit="10"/><path d="M167.01,575.67c-25.24-.89-66.32-4.17-96.26-6.77v85.96c0,24.28,20.15,43.96,45,43.96h51.79c-.57-39.75-1.5-93.04-.53-123.15Z" fill="none" stroke="#0b3954" stroke-miterlimit="10"/><path d="M366.78,406.08c-9.82,5.86-35.37,4.02-43.72,4.14-8.1.11-13.32-1.25-20.04-3.11-14.6.49-22.91,1.16-22.84,2.05v16.18c0,1.36,1.13,2.47,2.53,2.47h288.03v-21.55c-73.15-.34-148.37-.56-203.96-.17Z" fill="#cccecc" stroke="#8d8e8d" stroke-miterlimit="10"/><path d="M188.51,575.7c-3.86.13-7.33.2-10.31.2-3.2,0-6.98-.08-11.19-.23-.97,30.12-.05,83.4.53,123.15h22.28c.08-40.56-1.12-94.1-1.3-123.12Z" fill="#cccecc" stroke="#8d8e8d" stroke-miterlimit="10"/><path d="M169.91,552.37s16.57,0,16.57,0c1.4,0,2.53,1.11,2.53,2.47-.47.49-.58,8.43-.5,20.86,43-1.44,134.39-10.16,134.39-10.16,2.94,0,5.32-2.33,5.32-5.2v-9.19c-66.12-.77-146.87-3.1-194.45-6.39-4.23-.29-14.4-2.84-23.92-10.01-6.99-.69-13.42-1.88-19.11-3.5h-19.99v37.65c29.94,2.59,71.02,5.88,96.26,6.77.46-14.32,1.35-23.41,2.91-23.3Z" fill="#cccecc" stroke="#8d8e8d" stroke-miterlimit="10"/><path d="M189.01,554.84c0-1.36-1.13-2.47-2.53-2.47,0,0-16.56,0-16.57,0-1.56-.11-2.45,8.97-2.91,23.3,4.21.15,7.99.23,11.19.23,2.98,0,6.45-.07,10.31-.2-.08-12.44.03-20.38.5-20.86Z" fill="#cccecc" stroke="#8d8e8d" stroke-miterlimit="10"/><path d="M70.74,356.15v48.72c1.1-9.67,1.83-18.43,1.81-25.65-.01-6.65-.73-14.49-1.81-23.07Z" fill="#cccecc" stroke="#8d8e8d" stroke-miterlimit="10"/><path d="M93.47,146.59c8.39-6.56,18.95-11.23,32.14-13.57,14.69,1.1,26.94,7.2,37.09,17.18.96-5.76,1.83-11.28,2.43-16.51-23.24-3.8-41.7-11.13-55.77-20.49-5.2.72-10.12,2.31-14.59,4.62-1.86,9.34-1.86,19.56-1.3,28.78Z" fill="#bfd7ea" stroke="#0b3954" stroke-miterlimit="10"/><path d="M135.41,162.84c2.49-.18,4.84-1.84,4.79-4.98.03-2.13-1.04-3.57-2.51-4.34,3.31,2.4,2.55,8.75-2.29,9.32Z" fill="#bfd7ea" stroke="#0b3954" stroke-miterlimit="10"/><path d="M165.14,133.69c8.32,1.36,17.23,2.28,26.79,2.67,10.79.44,11.84-1.9,11.48-23.61h-38.11c.97,6.19.71,13.24-.17,20.94Z" fill="#bfd7ea" stroke="#0b3954" stroke-miterlimit="10"/><path d="M165.3,112.75h-49.56c-2.16,0-4.29.16-6.37.45,14.07,9.36,32.53,16.69,55.77,20.49.87-7.7,1.14-14.75.17-20.94Z" fill="#bfd7ea" stroke="#0b3954" stroke-miterlimit="10"/><path d="M142.04,493.47c.52-.7.86-1.59.93-2.68.15-1.66-.41-2.95-1.34-3.85,1.53,1.76,1.67,4.58.41,6.53Z" fill="#bfd7ea" stroke="#0b3954" stroke-miterlimit="10"/><path d="M133.49,223.48c6.83.1,6.83-10.37,0-10.28-6.83-.1-6.83,10.37,0,10.28Z" fill="#bfd7ea" stroke="#0b3954" stroke-miterlimit="10"/><path d="M105.69,531.25c-9.68-9.06-17.56-23.65-15.9-46.55,5.6-47.68,54.69-53.24,113.43-44.87.09-.94.17-1.88.25-2.85.78-9.65,1.48-19.56,2.07-29.62-25.16.4-49.36.73-62.71.88-2.35.39-4.98.59-7.94.56-20.12-.24-24.55-11.82-26.65-19.18-2.1-7.37-10.36-161.12-10.52-176.42-.14-12.85,15.77-30.14,35.77-30.32,59.85.45,33.5,117.64,28.06,182.28,13.58.51,29.61,1.2,45.67,1.94,2.13-88.33-6.64-179.66-44.52-216.89-.13.8-.27,1.6-.4,2.4-1.78,10.58-14.38,28.6-36.82,26.89-22.45-1.71-30.16-16.61-31.56-26.89-.17-1.94-.32-3.95-.45-6.01-10.87,8.49-18.11,20.16-22.73,34.06v142.69c4.84,42.74,9.17,84.02,1.7,113.4-.58,5-1.15,9.53-1.7,13.65v71.07c4.73,4.05,11.57,7.39,19.99,9.79h14.95Z" fill="#bfd7ea" stroke="#0b3954" stroke-miterlimit="10"/><path d="M133.49,389.62c4.31.06,5.89-4.09,4.76-7.13-1.61-3.43-7.11-3.68-9.22-.67-1.66,3.06-.17,7.86,4.46,7.8Z" fill="#bfd7ea" stroke="#0b3954" stroke-miterlimit="10"/><path d="M134.96,486.07c-1.36.71-2.37,2.03-2.49,4-.15,1.71.45,3.02,1.42,3.92-1.94-2.27-1.58-6.29,1.07-7.92Z" fill="#bfd7ea" stroke="#0b3954" stroke-miterlimit="10"/><path d="M134.6,162.88c.28,0,.55-.02.81-.05-2.8.21-5.78-1.45-5.73-4.98-.07-4.54,4.88-5.99,8.01-4.34-.8-.58-1.83-.92-3.1-.91-6.83-.1-6.83,10.37,0,10.28Z" fill="#bfd7ea" stroke="#0b3954" stroke-miterlimit="10"/><path d="M90.74,531.25c5.7,1.62,12.12,2.81,19.11,3.5-1.41-1.06-2.8-2.23-4.16-3.5h-14.95Z" fill="#bfd7ea" stroke="#0b3954" stroke-miterlimit="10"/><path d="M93.47,146.59c.13,2.06.28,4.07.45,6.01,1.4,10.28,9.12,25.18,31.56,26.89,22.45,1.71,35.05-16.31,36.82-26.89.14-.81.27-1.61.4-2.4-10.16-9.98-22.4-16.08-37.09-17.18-13.19,2.34-23.75,7.01-32.14,13.57ZM134.6,152.61c1.27-.02,2.3.33,3.1.91,1.47.77,2.54,2.22,2.51,4.34.05,3.14-2.3,4.8-4.79,4.98-.26.03-.53.05-.81.05-6.83.1-6.83-10.38,0-10.28Z" fill="#bfd7ea" stroke="#0b3954" stroke-miterlimit="10"/><path d="M133.89,493.99c.85,1,2.15,1.66,3.89,1.64,2.02.03,3.44-.87,4.26-2.15-1.84,2.48-5.96,2.55-8.15.51Z" fill="#bfd7ea" stroke="#0b3954" stroke-miterlimit="10"/><path d="M152.32,531.25h170.58c2.94,0,5.32,2.33,5.32,5.2v14.7c10.45.12,20.53.2,30.06.25,1.88-11.16-.63-25.5.18-40.32.98-38.77,64.85-34.61,69.11-2.38.28,1.36.19,7.07-.17,15.93.38-1.71.7-3.54.92-5.48,3.48-29.61-22.44-36.89-28.9-37.72-39.13-.68-124.8-31.43-196.2-41.6-5.51,60.47-27.41,83.29-50.9,91.42Z" fill="#bfd7ea" stroke="#0b3954" stroke-miterlimit="10"/><path d="M389.4,519.22c.79,1.41,2.25,2.43,4.39,2.42,1.66.04,2.91-.55,3.77-1.47-2.29,1.99-6.44,1.58-8.16-.95Z" fill="#bfd7ea" stroke="#0b3954" stroke-miterlimit="10"/><path d="M141.63,486.94c-.85-.98-2.14-1.62-3.85-1.6-1.13-.02-2.06.26-2.82.72,2.09-1.1,4.99-.76,6.67.88Z" fill="#bfd7ea" stroke="#0b3954" stroke-miterlimit="10"/><path d="M397,512.31c-.8-.6-1.84-.96-3.12-.95-1.4-.03-2.51.39-3.35,1.07,1.82-1.32,4.56-1.32,6.47-.12Z" fill="#bfd7ea" stroke="#0b3954" stroke-miterlimit="10"/><path d="M322.9,531.25h-170.58c-10.26,3.55-20.81,4.3-30.44,4.16-4.16-.06-8.18-.29-12.02-.66,9.52,7.17,19.69,9.71,23.92,10.01,47.58,3.3,128.33,5.62,194.45,6.39v-14.7c0-2.87-2.38-5.2-5.32-5.2Z" fill="#bfd7ea" stroke="#0b3954" stroke-miterlimit="10"/><path d="M89.79,484.7c-1.66,22.9,6.21,37.49,15.9,46.55h46.63c23.49-8.13,45.39-30.95,50.9-91.42-58.74-8.37-107.83-2.81-113.43,44.87ZM142.96,490.79c-.06,1.09-.41,1.98-.93,2.68-.82,1.28-2.24,2.18-4.26,2.15-1.74.02-3.03-.64-3.89-1.64-.97-.9-1.57-2.22-1.42-3.92.11-1.97,1.13-3.28,2.49-4,.75-.46,1.69-.74,2.82-.72,1.72-.02,3,.62,3.85,1.6.92.9,1.48,2.19,1.34,3.85Z" fill="#bfd7ea" stroke="#0b3954" stroke-miterlimit="10"/><path d="M152.32,531.25h-46.63c1.36,1.27,2.75,2.44,4.16,3.5,3.85.38,7.86.61,12.02.66,9.63.14,20.19-.62,30.44-4.16Z" fill="#bfd7ea" stroke="#0b3954" stroke-miterlimit="10"/><path d="M396.63,551.3c-11.13.13-24.12.16-38.35.1-.05.32-.1.65-.16.96-12.8,47.2-11.86,100.14-1.46,146.46h59.76c4.23-59.23,9.61-140.08,10.98-174.19-5.81,25.95-28.25,26.64-30.77,26.67Z" fill="#bfd7ea" stroke="#0b3954" stroke-miterlimit="10"/><path d="M397,512.31c2.41,1.8,2.58,5.72.56,7.86.88-.77,1.49-1.88,1.58-3.38.18-2.1-.76-3.6-2.14-4.48Z" fill="#bfd7ea" stroke="#0b3954" stroke-miterlimit="10"/><path d="M390.37,512.56c-.96.77-1.63,1.92-1.72,3.5-.11,1.27.19,2.33.76,3.16-1.17-2.09-.84-5.02.96-6.65Z" fill="#bfd7ea" stroke="#0b3954" stroke-miterlimit="10"/><path d="M427.57,508.71c-4.26-32.24-68.13-36.4-69.11,2.38-.8,14.81,1.7,29.16-.18,40.32,14.23.06,27.23.03,38.35-.1,2.52-.03,24.96-.71,30.77-26.67.36-8.86.44-14.57.17-15.93ZM399.14,516.79c-.09,1.49-.69,2.61-1.58,3.38-.86.91-2.12,1.5-3.77,1.47-2.14.01-3.61-1.01-4.39-2.42-.56-.83-.87-1.88-.76-3.16.09-1.57.76-2.73,1.72-3.5.02-.02.05-.04.07-.06.03-.03.06-.05.09-.07.83-.68,1.94-1.1,3.35-1.07,1.29,0,2.33.36,3.12.95,1.38.87,2.32,2.38,2.14,4.48Z" fill="#bfd7ea" stroke="#0b3954" stroke-miterlimit="10"/><path d="M132.29,408.35c-27.52,1.03-30.81-40.82-6.83-43.93,2.04-.37,16.52,0,36.1.74,5.44-64.64,31.78-181.83-28.06-182.28-20,.18-35.91,17.47-35.77,30.32.16,15.3,8.42,169.06,10.52,176.42,2.1,7.37,6.54,18.94,26.65,19.18,2.96.04,5.59-.16,7.94-.56-6.07.07-9.91.11-10.55.1ZM133.49,213.2c6.82-.1,6.82,10.38,0,10.28-6.83.1-6.83-10.38,0-10.28Z" fill="#bfd7ea" stroke="#0b3954" stroke-miterlimit="10"/><path d="M133.49,389.62c-4.63.07-6.12-4.73-4.46-7.8-.52.75-.85,1.69-.84,2.84-.18,6.67,10.54,6.79,10.52.12.02-.88-.15-1.64-.45-2.29,1.13,3.04-.46,7.19-4.76,7.13Z" fill="#bfd7ea" stroke="#0b3954" stroke-miterlimit="10"/><path d="M272.5,388.07c.52-11.13,10.17-15.59,10.17-15.59h12.71c-1.52-.53-3.24-.89-5.18-1.02-1.78-.37-42.46-2.51-82.98-4.37-.33,13.56-.91,27.05-1.68,40.27,41.98-.67,86.56-1.57,87.6-2.29.29-.11.57-.24.86-.37-.27-.07-.53-.13-.8-.2-13.16-3.15-21.22-5.1-20.69-16.44Z" fill="#bfd7ea" stroke="#0b3954" stroke-miterlimit="10"/><path d="M292.59,385.82c-.71-1.65-2.27-2.92-4.66-2.89-3.51-.05-5.21,2.69-5.11,5.36.18-5.34,7.41-6.12,9.77-2.47Z" fill="#bfd7ea" stroke="#0b3954" stroke-miterlimit="10"/><path d="M138.26,382.49c-.66-1.78-2.25-3.18-4.76-3.15-2.19-.03-3.68,1.03-4.46,2.48,2.12-3.01,7.61-2.76,9.22.67Z" fill="#bfd7ea" stroke="#0b3954" stroke-miterlimit="10"/><path d="M161.56,365.16c-.79,9.45-1.14,17.78-.71,24.46-.6,8-4.74,16.42-18.01,18.63,13.35-.16,37.55-.48,62.71-.88.77-13.21,1.36-26.7,1.68-40.27-16.06-.73-32.09-1.42-45.67-1.94Z" fill="#bfd7ea" stroke="#0b3954" stroke-miterlimit="10"/><path d="M160.85,389.62c-.43-6.67-.09-15.01.71-24.46-19.58-.74-34.06-1.12-36.1-.74-23.98,3.11-20.69,44.96,6.83,43.93.64,0,4.48-.03,10.55-.1,13.27-2.21,17.42-10.63,18.01-18.63ZM128.19,384.66c0-1.15.32-2.09.84-2.84.78-1.45,2.27-2.51,4.46-2.48,2.52-.04,4.1,1.37,4.76,3.15.31.65.48,1.41.45,2.29.02,6.67-10.7,6.54-10.52-.12Z" fill="#bfd7ea" stroke="#0b3954" stroke-miterlimit="10"/><path d="M366.78,406.08c2.6-1.55,4.11-3.65,3.89-6.46-.38-4.82,35.51,2.15,37.2-8.98,1.64-10.74-48.92-13.99-55.06-18.16h-57.43c14.64,5.11,10.64,26.87-1.39,32.22,3.43.84,6.35,1.66,9.03,2.4" fill="#bfd7ea" stroke="#0b3954" stroke-miterlimit="10"/><path d="M287.93,393.21c-3.32.05-5.02-2.4-5.11-4.92,0,.07-.01.14-.01.22-.18,6.67,10.54,6.79,10.52.12.03-1.12-.25-2.06-.74-2.81,1.32,3.06-.23,7.45-4.66,7.39Z" fill="#bfd7ea" stroke="#0b3954" stroke-miterlimit="10"/><path d="M303.02,407.1c2.64.72,11.05,3.29,20.04,3.11,8.36-.16,33.9,1.72,43.72-4.14" fill="#bfd7ea" stroke="#0b3954" stroke-miterlimit="10"/><path d="M295.38,372.48h-12.71s-9.65,4.46-10.17,15.59c-.53,11.34,7.53,13.28,20.69,16.44.28.07.53.13.8.2,12.03-5.35,16.03-27.11,1.39-32.22ZM282.81,388.51c0-.08,0-.15.01-.22-.1-2.66,1.6-5.41,5.11-5.36,2.39-.03,3.95,1.23,4.66,2.89.49.75.77,1.68.74,2.81.02,6.67-10.7,6.54-10.52-.12Z" fill="#bfd7ea" stroke="#0b3954" stroke-miterlimit="10"/></g></g><g id="Symbols_-_2"><circle cx="530" cy="130" r="65" fill="#2daa37"/><path d="M517.75,159.13c-1.52,0-3.03-.58-4.19-1.73l-23.13-23.13c-2.31-2.31-2.31-6.06,0-8.38,2.31-2.31,6.06-2.31,8.38,0l18.94,18.94,41.34-41.34c2.31-2.31,6.06-2.31,8.38,0,2.31,2.31,2.31,6.06,0,8.38l-45.53,45.53c-1.16,1.16-2.67,1.73-4.19,1.73Z" fill="#fff"/><circle cx="1093" cy="130" r="65" fill="#e62828"/><path d="M1099.6,130l19.15-19.15c1.82-1.82,1.82-4.78,0-6.6-1.82-1.82-4.78-1.82-6.6,0l-19.15,19.15-19.15-19.15c-1.82-1.82-4.78-1.82-6.6,0-1.82,1.82-1.82,4.78,0,6.6l19.15,19.15-19.15,19.15c-1.82,1.82-1.82,4.78,0,6.6.91.91,2.11,1.37,3.3,1.37s2.39-.46,3.3-1.37l19.15-19.15,19.15,19.15c.91.91,2.11,1.37,3.3,1.37s2.39-.46,3.3-1.37c1.82-1.82,1.82-4.78,0-6.6l-19.15-19.15Z" fill="#fff"/></g></svg>