<?xml version="1.0" encoding="UTF-8"?>
<svg id="Layer_1" data-name="Layer 1" xmlns="http://www.w3.org/2000/svg" viewBox="0 0 942 307.83">
  <path d="M141.4,1.31c-2.3.7-21.4,11-42.5,22.9-21.1,11.8-48.5,27.1-60.9,34-23.4,13-30.4,18.1-35.2,25.6l-2.8,4.5v131.2l2.8,4.5c5.1,8,12.2,12.9,46.4,31.9,18.3,10.1,45.5,25.3,60.3,33.7,14.9,8.5,29.2,16,31.9,16.8,6.3,1.9,16.9,1.9,23.2,0,2.7-.8,17.7-8.7,33.4-17.6,15.7-8.8,42.9-24,60.5-33.7,27.1-15,32.9-18.6,38.1-23.7,4.4-4.4,6.7-7.6,8.4-12l2.3-6v-119l-2.3-6c-3.9-10-11.1-16.1-33.5-28.4-10.5-5.7-37.4-20.8-60-33.5-22.5-12.7-43.2-23.8-46-24.8-5.9-2.1-18.1-2.3-24.1-.4ZM108,49.21c2.6,1.4,5.8,4.2,8,7.2,3.1,4.3,3.5,5.8,3.8,12.1.4,6.4.1,7.8-2.4,12.4-8.9,16.3-31.5,16.7-40.8.7-6.4-10.8-3.4-23.6,7-31,7.4-5.2,16-5.7,24.4-1.4ZM202.3,52.91c3.4,3.8,3.5,7.7.3,16.4-6.4,17.9-21.2,33.1-41,42.1-8.4,3.9-23.6,8.8-32.3,10.5l-6.3,1.3v13.9c0,12.8.1,13.9,1.8,13.5.9-.3,4.2-1.1,7.2-1.7,17.6-3.8,28.9-8.2,44.5-17.3,15-8.8,26.8-20.1,34.1-32.7,5.6-9.6,9.1-11.9,15-10,8.1,2.7,9.3,10.6,3.2,20.6-11.2,18.7-28.7,34.3-50.5,45.2-10.1,5.1-34.9,13.5-46.5,15.8l-8.8,1.7v30.7h4.9c6.3,0,20.8,2.5,29.6,5.1,16.8,5,29.9,14.8,35.7,26.7,3,6.2,3.3,7.4,3.2,16.2,0,11-1.9,16.2-6.7,18.6-3.8,2-9.1,1.1-12.3-2.1-2.3-2.3-2.4-3-2.2-12.8.3-10,.2-10.5-2.5-14.1-3.8-5-9.1-8.1-19.5-11.6-11.8-3.9-25.3-6-39.4-6h-11.8v-119.7l9.5-.7c30.1-2.1,55-13.4,65.7-29.8,1.9-2.9,4.7-8.6,6.3-12.6,2.1-5.6,3.5-7.9,5.9-9.3,4.3-2.7,9.3-1.9,12.9,2.1Z" fill="#c81d25"/>
  <path d="M94.5,68.91c-.9,1.5.4,3,2.6,3,1.2,0,1.9-.7,1.9-2,0-2.1-3.3-2.9-4.5-1Z" fill="#c81d25"/>
  <path d="M553,113.51c-17.8,4.7-31.1,17.1-36.2,33.7-1.7,5.7-2,8.7-1.6,18.2.4,11,.6,11.7,4.6,19.8,7.4,15,20.4,24.3,38.1,27.4,14.4,2.5,32.7-.7,44.9-8l5.2-3.1v-40.6h-21v29.7l-5.1,1.6c-2.9,1-8.4,1.7-12.8,1.7-9.7,0-17.7-3.5-23.8-10.4-5.3-6-7.3-12-7.3-21.5,0-13,6.5-23.3,17.9-28.5,3.5-1.5,6.7-2,13.6-2.1,9.9,0,15.2,1.7,22.5,7.5l3.8,3,7.2-6.7,7.3-6.7-4.4-3.9c-5.6-5-14.2-9.3-22.1-11.2s-23.6-1.8-30.8.1Z" fill="#c81d25"/>
  <path d="M661.2,113.51c-8.9,2.4-16.1,6.3-22.8,12.7-11.1,10.4-15.4,20.4-15.4,36.1s4.3,26,13.9,35.7c10.2,10.2,23.5,15.3,39.6,15.3,31.4,0,53.6-20.8,53.5-50.3-.1-15.4-3.7-24.8-13.7-35.2-7-7.3-14.7-11.7-24.8-14.4-7.4-1.9-23.1-1.9-30.3.1ZM690.4,134.31c10.1,4.9,15.7,13.7,16.4,25.7.8,13.8-4.4,24-15.6,30.7-4.3,2.5-5.6,2.7-14.7,2.7-11.3,0-15.5-1.6-21.9-8.1-5.8-6-8-11.7-8.4-21.6-.3-7.6-.1-9.4,2-14,3.2-6.9,6.9-11.2,12.5-14.5,6-3.5,9.5-4.3,17.5-3.9,4.8.2,8.3,1.1,12.2,3Z" fill="#c81d25"/>
  <path d="M323,162.41v49.5h76v-18l-26.7-.2-26.8-.3-.3-11.3-.3-11.2h46.1v-18h-46v-21h52v-19h-74v49.5Z" fill="#c81d25"/>
  <path d="M417,162.41v49.5h23v-28.1l10.2.3,10.2.3,9.5,13.7,9.5,13.8h24.7l-7.7-11.3c-4.3-6.1-9.2-13.2-11-15.6l-3.1-4.4,5.3-3.6c10.5-7.1,15-16.6,14.2-30.4-.6-10.2-3.5-16.4-10.8-23-9.7-8.7-19-10.6-52.2-10.7h-21.8v49.5ZM471.9,135.21c5,3.3,7.1,7.6,7.1,14.5,0,6.3-3,10.9-9,13.9-3.9,2-5.9,2.3-17.2,2.3h-12.8v-34.2l13.8.4c13.2.3,14,.4,18.1,3.1Z" fill="#c81d25"/>
  <path d="M771.7,133.61c-8.5,11.5-19.1,25.7-23.6,31.8l-8.1,10.9v14.6h53v21h23v-21h16v-18h-15.9l-.3-9.3-.3-9.2-10.7-.3-10.8-.3v19.1h-12.5c-7.2,0-12.5-.4-12.5-.9,0-.6,9-13.4,20.1-28.6,11-15.3,20.3-28.3,20.6-29.1.4-1.2-1.5-1.4-11-1.4h-11.6l-15.4,20.7Z" fill="#c81d25"/>
  <path d="M874.6,115.71c-1.2,2.3-39.9,89.3-42.3,95-.4,1,2,1.2,11.2,1l11.8-.3,4.2-10,4.1-10,23-.3,23-.2,4.3,10.5,4.4,10.5h11.8c6.6,0,11.9-.1,11.9-.3s-9.9-22.4-21.9-49.3l-22-48.9-11-.3-11-.3-1.5,2.9ZM894.9,155.41c3.9,9.3,7.1,17.3,7.1,17.7,0,.5-6.7.8-15,.8-11.3,0-15-.3-15-1.3,0-2.4,14.3-35.8,15.1-35,.4.4,3.9,8.4,7.8,17.8Z" fill="#c81d25"/>
</svg>